<svg xmlns="http://www.w3.org/2000/svg" viewBox="0 0 243.61 43.16"><defs><style>.cls-1{fill:#fd2d01;}.cls-2{fill:#ffd7d7;}</style></defs><g id="Layer_2" data-name="Layer 2"><g id="Layer_1-2" data-name="Layer 1"><g id="b5a93e15-ef7c-9d7a-680b-cdb17474f15f"><path class="cls-1" d="M68.54,29.69h0a11,11,0,0,1-8-3.24h0a10.9,10.9,0,0,1-3.23-8.07h0a10.9,10.9,0,0,1,3.23-8h0a10.9,10.9,0,0,1,8-3.23h0a12.11,12.11,0,0,1,8.27,3h0l-3,3.28h0a8.28,8.28,0,0,0-5.28-1.8h0a6.66,6.66,0,0,0-4.9,1.95h0a6.53,6.53,0,0,0-1.84,4.8h0a6.69,6.69,0,0,0,1.87,5h0a6.69,6.69,0,0,0,4.9,1.85h0a6.3,6.3,0,0,0,3.74-.95h0V20.41h-3V16.19h7.47V26.73h0a12.23,12.23,0,0,1-8.27,3Zm16.35-15v1.67h0a5.27,5.27,0,0,1,3.93-1.65h0a8.06,8.06,0,0,1,1.39.11h0l-.66,4.16h0a3.11,3.11,0,0,0-2.09-.7h0c-1,.07-1.89.81-2.57,2.22h0v9.24H80.68V15.1Zm14.88,15.2h0a7.44,7.44,0,0,1-5.48-2.2h0a7.47,7.47,0,0,1-2.18-5.45h0a7.48,7.48,0,0,1,2.18-5.48h0a7.4,7.4,0,0,1,5.48-2.2h0a7.4,7.4,0,0,1,5.48,2.2h0a7.43,7.43,0,0,1,2.2,5.48h0a7.39,7.39,0,0,1-2.2,5.45h0A7.48,7.48,0,0,1,99.77,29.84Zm0-3.63h0a3.62,3.62,0,0,0,2.77-1.16h0a4,4,0,0,0,1.08-2.86h0a4,4,0,0,0-1.08-2.86h0a3.59,3.59,0,0,0-2.79-1.17h0A3.56,3.56,0,0,0,97,19.33h0a4,4,0,0,0-1.06,2.86h0A4.08,4.08,0,0,0,97,25.05h0a3.68,3.68,0,0,0,2.79,1.16Zm19.6-1.85h0V14.64h4.2V29.69h-4.2V28.32h0a5.22,5.22,0,0,1-3.61,1.37h0A5.41,5.41,0,0,1,111.41,28h0a5.92,5.92,0,0,1-1.52-4h0V14.62h4.22v8.27h0a3.4,3.4,0,0,0,.75,2.33h0a3,3,0,0,0,2.27.88h0a2.87,2.87,0,0,0,2.25-1.74Zm12,11.66h-4.2V15.12l4.2-.46v1.21h0a5.65,5.65,0,0,1,3.32-1.21h0a6.93,6.93,0,0,1,5.48,2.27h0a7.48,7.48,0,0,1,2,5.25h0a7.54,7.54,0,0,1-2,5.26h0a7,7,0,0,1-5.48,2.27h0a5.1,5.1,0,0,1-3.32-1.23h0Zm0-15.22h0v2.44h0c.21,1.69,1.26,2.68,3.17,3h0a4,4,0,0,0,4.07-3.74h0q-.15-4.21-4.07-4.38h0c-1.91.28-3,1.18-3.17,2.68Zm20.64,9h0a7.36,7.36,0,0,1-5.46-2.2h0a7.43,7.43,0,0,1-2.2-5.45h0a7.39,7.39,0,0,1,2.2-5.48h0a7.32,7.32,0,0,1,5.46-2.2h0a7.4,7.4,0,0,1,5.48,2.2h0a7.43,7.43,0,0,1,2.2,5.48h0a7.39,7.39,0,0,1-2.2,5.45h0A7.48,7.48,0,0,1,152,29.8Zm0-3.63h0A3.62,3.62,0,0,0,154.78,25h0a4,4,0,0,0,1.08-2.86h0a4,4,0,0,0-1.08-2.86h0A3.56,3.56,0,0,0,152,18.12h0a3.58,3.58,0,0,0-2.78,1.17h0a4.06,4.06,0,0,0-1.05,2.86h0A4.14,4.14,0,0,0,149.21,25h0a3.72,3.72,0,0,0,2.8,1.2ZM166.7,20h0v9.62h-4.22V15.1l4.22-.46V16h0a5.05,5.05,0,0,1,3.61-1.32h0a5.46,5.46,0,0,1,4.36,1.72h0a6.5,6.5,0,0,1,5-1.72h0A5.51,5.51,0,0,1,184,16.38h0a6,6,0,0,1,1.49,4h0v9.31h-4.2V21.42h0a3.62,3.62,0,0,0-.68-2.34h0a2.79,2.79,0,0,0-2.2-.85h0a2.76,2.76,0,0,0-2.16,1.65h0a4.91,4.91,0,0,0-.09.94h0v8.87H172V21.42h0a3.62,3.62,0,0,0-.68-2.34h0a2.79,2.79,0,0,0-2.2-.85h0a3,3,0,0,0-2.38,1.84ZM191.15,19l-1.65-2.55h0a12,12,0,0,1,6.62-1.81h0a5.88,5.88,0,0,1,4.27,1.5h0A6,6,0,0,1,202,20.63h0v9h-4.2V28.44h0a6.39,6.39,0,0,1-3.32,1.19h0a6.91,6.91,0,0,1-4.51-1.28h0a4.38,4.38,0,0,1-1.5-3.52h0a5.55,5.55,0,0,1,1.43-3.76h0c.94-1.1,2.46-1.65,4.58-1.65h0a7.56,7.56,0,0,1,3.32.9h0v-.46h0c0-1.1-.84-1.7-2.42-1.8h0a8.18,8.18,0,0,0-4.2.9Zm6.62,6.2h0v-1.7h0c-.4-.77-1.35-1.16-2.86-1.16h0c-1.81.2-2.76.91-2.86,2.11h0c.1,1.19,1,1.83,2.86,1.94h0C196.42,26.37,197.37,26,197.77,25.18Zm12.19-5h0v9.55h-4.19V15.1l4.23-.46V16h0a5.22,5.22,0,0,1,3.6-1.34h0A5.46,5.46,0,0,1,218,16.38h0a5.94,5.94,0,0,1,1.5,4h0v9.31h-4.21V21.42h0a3.4,3.4,0,0,0-.74-2.34h0a3.09,3.09,0,0,0-2.29-.85h0c-.91.05-1.65.69-2.26,1.91Zm17.2,9.55H223V14.64h4.2Zm-4.39-18.68h0a2,2,0,0,0,.6,1.5h0a2.34,2.34,0,0,0,1.67.59h0a2.27,2.27,0,0,0,1.73-.56h0a2,2,0,0,0,.59-1.5h0a2.05,2.05,0,0,0-.59-1.5h0A2.2,2.2,0,0,0,225.08,9h0a2.15,2.15,0,0,0-1.63.62h0A2,2,0,0,0,222.77,11.05Zm10,8-1.65-2.55h0a12.1,12.1,0,0,1,6.62-1.81h0a5.94,5.94,0,0,1,4.29,1.5h0a6,6,0,0,1,1.56,4.51h0v9h-4.2V28.51h0a6.33,6.33,0,0,1-3.3,1.19h0a6.86,6.86,0,0,1-4.51-1.28h0a4.39,4.39,0,0,1-1.52-3.52h0a5.55,5.55,0,0,1,1.43-3.76h0q1.41-1.65,4.6-1.65h0a7.51,7.51,0,0,1,3.3.9h0v-.46h0q0-1.65-2.4-1.8h0a8.24,8.24,0,0,0-4.22.9Zm6.62,6.16h0v-1.7h0c-.39-.77-1.35-1.16-2.86-1.16h0c-1.8.2-2.76.91-2.86,2.11h0c.1,1.19,1.06,1.83,2.86,1.94h0c1.51,0,2.47-.43,2.86-1.22Z"/></g><g id="_9269873b-566f-aa23-fe77-697bbc54db67" data-name=" 9269873b-566f-aa23-fe77-697bbc54db67"><path class="cls-2" d="M21.66,43.16A21.58,21.58,0,1,0,6.32,36.84,21.58,21.58,0,0,0,21.66,43.16Zm1.25-3.66a8.65,8.65,0,0,1-1.25.06c-.57,0-1.14-.06-1.71-.11a31.79,31.79,0,0,1-4.09-9.27H25a4.52,4.52,0,0,0,1.56,2A31.3,31.3,0,0,1,22.91,39.5Zm4.92-1A32,32,0,0,0,30.22,33a4.51,4.51,0,0,0,3.26-2.74h4A18.43,18.43,0,0,1,27.83,38.5Zm11.82-17a20.07,20.07,0,0,1-.67,5h-5.6a4.71,4.71,0,0,0-1.45-1.77q.15-1.71.15-3.42a36.16,36.16,0,0,0-.31-4.77h7.15A15.73,15.73,0,0,1,39.65,21.5Zm-2.18-8.66H31.15a34.09,34.09,0,0,0-3-8.13A18.3,18.3,0,0,1,37.47,12.84Zm-9,8.45a23.57,23.57,0,0,1-.1,2.65,4.48,4.48,0,0,0-3.23,2.56h-10a37.21,37.21,0,0,1-.36-4.72,27.41,27.41,0,0,1,.16-3A4.67,4.67,0,0,0,18,16.5H28.1a36.62,36.62,0,0,1,.35,4.79ZM20.34,3.57c.45,0,.89,0,1.34,0h1.56a31.27,31.27,0,0,1,4.09,9.27h-9a5.09,5.09,0,0,0-1.61-2.22,33.24,33.24,0,0,1,3.6-7Zm-4.93,1a38,38,0,0,0-2.28,5.19,4.59,4.59,0,0,0-3.42,3H5.91A18.27,18.27,0,0,1,15.39,4.6ZM3.68,21.5a17.64,17.64,0,0,1,.73-5h5.64A5.54,5.54,0,0,0,11.35,18c-.1,1.24-.21,2.49-.21,3.73a37.29,37.29,0,0,0,.31,4.72h-7A16.36,16.36,0,0,1,3.68,21.5Zm8.4,8.6a35.21,35.21,0,0,0,3,8.14A18.11,18.11,0,0,1,5.86,30.1Z"/></g></g></g></svg>