<svg width="291" height="64" viewBox="0 0 291 64" fill="none" xmlns="http://www.w3.org/2000/svg">
<path d="M24.6562 42.75C24.6562 43.0625 24.6042 43.375 24.5 43.6875C24.4167 43.9792 24.3229 44.2708 24.2188 44.5625C23.7604 45.75 23.1979 46.8542 22.5312 47.875C21.8646 48.875 21.0938 49.7396 20.2188 50.4688C19.3438 51.1979 18.3542 51.7708 17.25 52.1875C16.1458 52.6042 14.9271 52.8125 13.5938 52.8125C11.8229 52.8125 10.3021 52.4375 9.03125 51.6875C7.76042 50.9375 6.67708 49.9688 5.78125 48.7812C4.88542 47.5729 4.14583 46.2292 3.5625 44.75C3 43.2708 2.55208 41.7917 2.21875 40.3125C1.71875 38.1667 1.33333 36.0208 1.0625 33.875C0.791667 31.7083 0.65625 29.5417 0.65625 27.375C0.65625 26.1042 0.708333 24.7917 0.8125 23.4375C0.9375 22.0833 1.14583 20.75 1.4375 19.4375C1.72917 18.1042 2.125 16.8229 2.625 15.5938C3.125 14.3438 3.75 13.1979 4.5 12.1562C5.25 11.0938 6.13542 10.1562 7.15625 9.34375C8.19792 8.53125 9.40625 7.89583 10.7812 7.4375C11.2812 7.25 11.8021 7.125 12.3438 7.0625C12.8854 6.97917 13.4271 6.9375 13.9688 6.9375C15.0521 6.9375 16.0833 7.11458 17.0625 7.46875C18.0417 7.82292 18.8958 8.32292 19.625 8.96875C20.375 9.61458 20.9583 10.3958 21.375 11.3125C21.8125 12.2292 22.0312 13.25 22.0312 14.375C22.0312 14.75 21.9479 15.0312 21.7812 15.2188C21.6146 15.4062 21.3229 15.5 20.9062 15.5C20.1354 15.5 19.5312 15.375 19.0938 15.125C18.6771 14.875 18.3333 14.5625 18.0625 14.1875C17.7917 13.8125 17.5625 13.4062 17.375 12.9688C17.2083 12.5312 17 12.125 16.75 11.75C16.5 11.375 16.1667 11.0625 15.75 10.8125C15.3333 10.5625 14.7604 10.4375 14.0312 10.4375C13.3021 10.4375 12.6146 10.5833 11.9688 10.875C11.3438 11.1458 10.7604 11.5104 10.2188 11.9688C9.69792 12.4271 9.21875 12.9479 8.78125 13.5312C8.36458 14.0938 7.98958 14.6667 7.65625 15.25C6.78125 16.875 6.16667 18.6146 5.8125 20.4688C5.45833 22.3021 5.28125 24.1458 5.28125 26C5.28125 26.625 5.30208 27.4375 5.34375 28.4375C5.40625 29.4167 5.48958 30.5 5.59375 31.6875C5.71875 32.875 5.88542 34.1354 6.09375 35.4688C6.30208 36.7812 6.55208 38.0729 6.84375 39.3438C7.15625 40.6146 7.52083 41.8333 7.9375 43C8.375 44.1667 8.86458 45.1875 9.40625 46.0625C9.96875 46.9375 10.5938 47.6354 11.2812 48.1562C11.9896 48.6771 12.7812 48.9375 13.6562 48.9375C14.5521 48.9375 15.3438 48.7083 16.0312 48.25C16.7188 47.7708 17.3021 47.1771 17.7812 46.4688C18.2812 45.7396 18.6875 44.9583 19 44.125C19.3333 43.2708 19.5938 42.4792 19.7812 41.75C19.8438 41.5417 19.8958 41.3542 19.9375 41.1875C20 41.0208 20.0729 40.875 20.1562 40.75C20.2604 40.625 20.3854 40.5312 20.5312 40.4688C20.6771 40.4062 20.8854 40.375 21.1562 40.375C21.4479 40.375 21.7917 40.4375 22.1875 40.5625C22.6042 40.6667 22.9896 40.8229 23.3438 41.0312C23.7188 41.2396 24.0312 41.4896 24.2812 41.7812C24.5312 42.0729 24.6562 42.3958 24.6562 42.75ZM46.8438 28C46.8438 28.875 46.8229 29.8958 46.7812 31.0625C46.7604 32.2083 46.6875 33.4375 46.5625 34.75C46.4583 36.0625 46.2917 37.4062 46.0625 38.7812C45.8542 40.1562 45.5729 41.5 45.2188 42.8125C44.8646 44.125 44.4271 45.3646 43.9062 46.5312C43.3854 47.6979 42.7604 48.7188 42.0312 49.5938C41.3021 50.4688 40.4583 51.1667 39.5 51.6875C38.5417 52.1875 37.4479 52.4375 36.2188 52.4375C34.9896 52.4375 33.875 52.1562 32.875 51.5938C31.875 51.0104 31.0312 50.25 30.3438 49.3125C29.7812 48.5625 29.2812 47.6458 28.8438 46.5625C28.4271 45.4583 28.0521 44.2604 27.7188 42.9688C27.4062 41.6771 27.1354 40.3333 26.9062 38.9375C26.6771 37.5417 26.4896 36.1667 26.3438 34.8125C26.2188 33.4583 26.125 32.1771 26.0625 30.9688C26 29.7396 25.9688 28.6667 25.9688 27.75C25.9688 26.2083 26.0312 24.5938 26.1562 22.9062C26.3021 21.2188 26.5625 19.5521 26.9375 17.9062C27.3125 16.2396 27.8229 14.6354 28.4688 13.0938C29.1146 11.5521 29.9479 10.1667 30.9688 8.9375C31.0729 8.8125 31.1979 8.66667 31.3438 8.5C31.5104 8.33333 31.6875 8.17708 31.875 8.03125C32.0625 7.86458 32.25 7.72917 32.4375 7.625C32.6458 7.5 32.8438 7.4375 33.0312 7.4375C33.2188 7.4375 33.3958 7.48958 33.5625 7.59375C33.75 7.69792 33.9062 7.83333 34.0312 8C34.4688 7.75 34.9271 7.57292 35.4062 7.46875C35.9062 7.36458 36.4062 7.3125 36.9062 7.3125C38.4271 7.3125 39.7292 7.67708 40.8125 8.40625C41.9167 9.11458 42.8333 10.0521 43.5625 11.2188C44.2917 12.3854 44.875 13.7083 45.3125 15.1875C45.75 16.6667 46.0833 18.1771 46.3125 19.7188C46.5417 21.2604 46.6875 22.75 46.75 24.1875C46.8125 25.625 46.8438 26.8958 46.8438 28ZM41.9688 29.375C41.9688 28.8333 41.9479 28.0104 41.9062 26.9062C41.8854 25.7812 41.8125 24.5521 41.6875 23.2188C41.5625 21.8646 41.3854 20.4792 41.1562 19.0625C40.9479 17.6458 40.6562 16.3646 40.2812 15.2188C39.9062 14.0521 39.4375 13.1042 38.875 12.375C38.3333 11.625 37.6771 11.25 36.9062 11.25C36.5938 11.25 36.3125 11.3958 36.0625 11.6875C35.8125 11.9792 35.5729 12.3542 35.3438 12.8125C35.1146 13.2708 34.9062 13.7708 34.7188 14.3125C34.5312 14.8542 34.3438 15.375 34.1562 15.875C33.9688 16.375 33.7917 16.8229 33.625 17.2188C33.4583 17.6146 33.2812 17.8958 33.0938 18.0625C33.0312 18.125 32.9271 18.1667 32.7812 18.1875C32.6562 18.1875 32.5312 18.1875 32.4062 18.1875C32.0521 18.1875 31.7188 18.125 31.4062 18C31.0521 19.4167 30.8021 20.8333 30.6562 22.25C30.5312 23.6458 30.4688 25.0625 30.4688 26.5C30.4688 26.9375 30.4896 27.5938 30.5312 28.4688C30.5729 29.3438 30.6354 30.3438 30.7188 31.4688C30.8021 32.5938 30.9167 33.8021 31.0625 35.0938C31.2083 36.3854 31.3854 37.6771 31.5938 38.9688C31.8021 40.2396 32.0417 41.4688 32.3125 42.6562C32.6042 43.8229 32.9375 44.8646 33.3125 45.7812C33.6875 46.6771 34.1042 47.3958 34.5625 47.9375C35.0208 48.4792 35.5312 48.75 36.0938 48.75C36.4062 48.75 36.6875 48.6667 36.9375 48.5C37.1875 48.3125 37.4271 48.125 37.6562 47.9375C38.2812 47.375 38.8229 46.6354 39.2812 45.7188C39.7396 44.8021 40.125 43.7917 40.4375 42.6875C40.75 41.5833 41.0104 40.4271 41.2188 39.2188C41.4271 37.9896 41.5833 36.7812 41.6875 35.5938C41.7917 34.4062 41.8646 33.2812 41.9062 32.2188C41.9479 31.1354 41.9688 30.1875 41.9688 29.375ZM69.1562 9.5C69.1562 10.125 68.9896 10.6146 68.6562 10.9688C68.3229 11.3229 67.9062 11.5833 67.4062 11.75C66.9062 11.9167 66.375 12.0208 65.8125 12.0625C65.25 12.1042 64.7396 12.125 64.2812 12.125C63.3646 12.125 62.4479 12.1146 61.5312 12.0938C60.6146 12.0729 59.6979 12.0625 58.7812 12.0625C58.3438 12.0625 57.9062 12.0625 57.4688 12.0625C57.0312 12.0625 56.5938 12.0833 56.1562 12.125C55.9896 12.4792 55.8854 12.8438 55.8438 13.2188C55.8021 13.5729 55.7812 13.9375 55.7812 14.3125C55.7812 16.2708 55.8542 18.2083 56 20.125C56.1458 22.0417 56.3021 23.9792 56.4688 25.9375C57.7188 25.8333 58.9688 25.7083 60.2188 25.5625C61.4688 25.4167 62.7396 25.25 64.0312 25.0625C64.1979 25.0625 64.3542 25.0521 64.5 25.0312C64.6458 25.0104 64.8021 25 64.9688 25C65.8021 25 66.2188 25.4583 66.2188 26.375C66.2188 26.625 66.1875 26.875 66.125 27.125C66.0833 27.375 66.0104 27.625 65.9062 27.875C65.7604 28.2917 65.5208 28.6042 65.1875 28.8125C64.8542 29 64.4792 29.1354 64.0625 29.2188C63.6458 29.2812 63.2083 29.3125 62.75 29.3125C62.3125 29.2917 61.9271 29.2917 61.5938 29.3125L56.7188 29.5C56.8438 31.4792 56.9792 33.4375 57.125 35.375C57.2708 37.3125 57.4271 39.2708 57.5938 41.25C57.7604 42.75 57.8958 44.2604 58 45.7812C58.125 47.3021 58.3021 48.8125 58.5312 50.3125V50.8125C58.5312 51.2917 58.3958 51.6146 58.125 51.7812C57.8542 51.9271 57.5104 52 57.0938 52C56.3229 52 55.5938 51.875 54.9062 51.625C54.4479 51.4583 54.1042 51.2604 53.875 51.0312C53.6458 50.7812 53.4792 50.5104 53.375 50.2188C53.2917 49.9062 53.2396 49.5729 53.2188 49.2188C53.1979 48.8646 53.1771 48.4792 53.1562 48.0625C52.9688 44.9167 52.7604 41.7917 52.5312 38.6875C52.3021 35.5625 52.0938 32.4167 51.9062 29.25C51.7812 26.9167 51.6458 24.6042 51.5 22.3125C51.3542 20.0208 51.2812 17.7083 51.2812 15.375C51.2812 14.1458 51.3542 13.1042 51.5 12.25C51.6667 11.375 51.9688 10.6667 52.4062 10.125C52.8438 9.58333 53.4688 9.1875 54.2812 8.9375C55.0938 8.6875 56.1562 8.5625 57.4688 8.5625C58.8229 8.5625 60.1667 8.57292 61.5 8.59375C62.8333 8.61458 64.1771 8.625 65.5312 8.625C66.0104 8.625 66.4688 8.61458 66.9062 8.59375C67.3438 8.55208 67.7812 8.58333 68.2188 8.6875C68.4688 8.72917 68.6875 8.80208 68.875 8.90625C69.0625 8.98958 69.1562 9.1875 69.1562 9.5ZM89.0312 9.5C89.0312 10.125 88.8646 10.6146 88.5312 10.9688C88.1979 11.3229 87.7812 11.5833 87.2812 11.75C86.7812 11.9167 86.25 12.0208 85.6875 12.0625C85.125 12.1042 84.6146 12.125 84.1562 12.125C83.2396 12.125 82.3229 12.1146 81.4062 12.0938C80.4896 12.0729 79.5729 12.0625 78.6562 12.0625C78.2188 12.0625 77.7812 12.0625 77.3438 12.0625C76.9062 12.0625 76.4688 12.0833 76.0312 12.125C75.8646 12.4792 75.7604 12.8438 75.7188 13.2188C75.6771 13.5729 75.6562 13.9375 75.6562 14.3125C75.6562 16.2708 75.7292 18.2083 75.875 20.125C76.0208 22.0417 76.1771 23.9792 76.3438 25.9375C77.5938 25.8333 78.8438 25.7083 80.0938 25.5625C81.3438 25.4167 82.6146 25.25 83.9062 25.0625C84.0729 25.0625 84.2292 25.0521 84.375 25.0312C84.5208 25.0104 84.6771 25 84.8438 25C85.6771 25 86.0938 25.4583 86.0938 26.375C86.0938 26.625 86.0625 26.875 86 27.125C85.9583 27.375 85.8854 27.625 85.7812 27.875C85.6354 28.2917 85.3958 28.6042 85.0625 28.8125C84.7292 29 84.3542 29.1354 83.9375 29.2188C83.5208 29.2812 83.0833 29.3125 82.625 29.3125C82.1875 29.2917 81.8021 29.2917 81.4688 29.3125L76.5938 29.5C76.7188 31.4792 76.8542 33.4375 77 35.375C77.1458 37.3125 77.3021 39.2708 77.4688 41.25C77.6354 42.75 77.7708 44.2604 77.875 45.7812C78 47.3021 78.1771 48.8125 78.4062 50.3125V50.8125C78.4062 51.2917 78.2708 51.6146 78 51.7812C77.7292 51.9271 77.3854 52 76.9688 52C76.1979 52 75.4688 51.875 74.7812 51.625C74.3229 51.4583 73.9792 51.2604 73.75 51.0312C73.5208 50.7812 73.3542 50.5104 73.25 50.2188C73.1667 49.9062 73.1146 49.5729 73.0938 49.2188C73.0729 48.8646 73.0521 48.4792 73.0312 48.0625C72.8438 44.9167 72.6354 41.7917 72.4062 38.6875C72.1771 35.5625 71.9688 32.4167 71.7812 29.25C71.6562 26.9167 71.5208 24.6042 71.375 22.3125C71.2292 20.0208 71.1562 17.7083 71.1562 15.375C71.1562 14.1458 71.2292 13.1042 71.375 12.25C71.5417 11.375 71.8438 10.6667 72.2812 10.125C72.7188 9.58333 73.3438 9.1875 74.1562 8.9375C74.9688 8.6875 76.0312 8.5625 77.3438 8.5625C78.6979 8.5625 80.0417 8.57292 81.375 8.59375C82.7083 8.61458 84.0521 8.625 85.4062 8.625C85.8854 8.625 86.3438 8.61458 86.7812 8.59375C87.2188 8.55208 87.6562 8.58333 88.0938 8.6875C88.3438 8.72917 88.5625 8.80208 88.75 8.90625C88.9375 8.98958 89.0312 9.1875 89.0312 9.5ZM112.5 45.1875C112.5 45.5417 112.354 45.8854 112.062 46.2188C111.792 46.5521 111.458 46.875 111.062 47.1875C110.667 47.5 110.26 47.7917 109.844 48.0625C109.427 48.3125 109.083 48.5208 108.812 48.6875C108.104 49.1458 107.396 49.5729 106.688 49.9688C106 50.3646 105.281 50.7083 104.531 51C103.802 51.2917 103.042 51.5208 102.25 51.6875C101.479 51.8542 100.667 51.9375 99.8125 51.9375L99.3125 52C98.625 52 97.9375 51.9271 97.25 51.7812C96.5833 51.6146 95.9583 51.375 95.375 51.0625C94.7917 50.7292 94.2708 50.3125 93.8125 49.8125C93.3542 49.3125 93 48.7083 92.75 48C92.5625 47.4375 92.4167 46.7708 92.3125 46C92.2083 45.2292 92.125 44.4271 92.0625 43.5938C92.0208 42.7604 91.9792 41.9479 91.9375 41.1562C91.9167 40.3438 91.8958 39.625 91.875 39C91.5625 32.625 91.3125 26.25 91.125 19.875C91.0833 19.1458 91.0521 18.4167 91.0312 17.6875C91.0104 16.9583 91 16.2292 91 15.5C91 14.25 91.0729 13.1875 91.2188 12.3125C91.3646 11.4375 91.6562 10.7188 92.0938 10.1562C92.5312 9.59375 93.1562 9.1875 93.9688 8.9375C94.8021 8.6875 95.8958 8.5625 97.25 8.5625C98.6042 8.5625 99.9583 8.57292 101.312 8.59375C102.688 8.61458 104.062 8.625 105.438 8.625C105.854 8.625 106.271 8.61458 106.688 8.59375C107.104 8.55208 107.521 8.58333 107.938 8.6875C108.188 8.72917 108.406 8.80208 108.594 8.90625C108.781 8.98958 108.875 9.1875 108.875 9.5C108.875 10.25 108.625 10.8125 108.125 11.1875C107.625 11.5417 107.031 11.7812 106.344 11.9062C105.656 12.0312 104.938 12.0938 104.188 12.0938C103.458 12.0729 102.854 12.0625 102.375 12.0625H98.3125C97.8958 12.0625 97.4792 12.0625 97.0625 12.0625C96.6458 12.0625 96.2292 12.0833 95.8125 12.125C95.6875 12.4375 95.6042 12.7604 95.5625 13.0938C95.5208 13.4271 95.5 13.7708 95.5 14.125C95.5 16.3958 95.5521 18.6354 95.6562 20.8438C95.7812 23.0521 95.8958 25.2917 96 27.5625C97.2917 27.4583 98.5729 27.3333 99.8438 27.1875C101.115 27.0417 102.396 26.875 103.688 26.6875C103.875 26.6875 104.042 26.6771 104.188 26.6562C104.354 26.6354 104.521 26.625 104.688 26.625C105.125 26.625 105.427 26.7396 105.594 26.9688C105.781 27.1979 105.875 27.5208 105.875 27.9375C105.875 28.2292 105.854 28.5 105.812 28.75C105.792 29 105.729 29.25 105.625 29.5C105.479 29.9167 105.24 30.2188 104.906 30.4062C104.573 30.5938 104.198 30.7292 103.781 30.8125C103.365 30.875 102.927 30.9062 102.469 30.9062C102.031 30.9062 101.646 30.9167 101.312 30.9375C100.438 30.9792 99.5729 31.0104 98.7188 31.0312C97.8854 31.0521 97.0417 31.0833 96.1875 31.125C96.2083 31.5625 96.2396 32.2188 96.2812 33.0938C96.3229 33.9688 96.3646 34.9583 96.4062 36.0625C96.4688 37.1458 96.5312 38.2708 96.5938 39.4375C96.6771 40.6042 96.7604 41.7083 96.8438 42.75C96.9271 43.7708 97.0208 44.6667 97.125 45.4375C97.2292 46.2083 97.3333 46.7292 97.4375 47C97.6667 47.4375 97.9271 47.7292 98.2188 47.875C98.5104 48 98.8958 48.0625 99.375 48.0625C100.146 48.0625 100.958 47.9167 101.812 47.625C102.667 47.3125 103.5 46.9271 104.312 46.4688C105.125 45.9896 105.896 45.4688 106.625 44.9062C107.375 44.3438 108.021 43.7917 108.562 43.25C108.792 43.0625 109.021 42.875 109.25 42.6875C109.479 42.4792 109.75 42.375 110.062 42.375C110.375 42.375 110.677 42.4688 110.969 42.6562C111.26 42.8438 111.521 43.0833 111.75 43.375C111.979 43.6458 112.156 43.9479 112.281 44.2812C112.427 44.6146 112.5 44.9167 112.5 45.1875ZM135.812 45.1875C135.812 45.5417 135.667 45.8854 135.375 46.2188C135.104 46.5521 134.771 46.875 134.375 47.1875C133.979 47.5 133.573 47.7917 133.156 48.0625C132.74 48.3125 132.396 48.5208 132.125 48.6875C131.417 49.1458 130.708 49.5729 130 49.9688C129.312 50.3646 128.594 50.7083 127.844 51C127.115 51.2917 126.354 51.5208 125.562 51.6875C124.792 51.8542 123.979 51.9375 123.125 51.9375L122.625 52C121.938 52 121.25 51.9271 120.562 51.7812C119.896 51.6146 119.271 51.375 118.688 51.0625C118.104 50.7292 117.583 50.3125 117.125 49.8125C116.667 49.3125 116.312 48.7083 116.062 48C115.875 47.4375 115.729 46.7708 115.625 46C115.521 45.2292 115.438 44.4271 115.375 43.5938C115.333 42.7604 115.292 41.9479 115.25 41.1562C115.229 40.3438 115.208 39.625 115.188 39C114.875 32.625 114.625 26.25 114.438 19.875C114.396 19.1458 114.365 18.4167 114.344 17.6875C114.323 16.9583 114.312 16.2292 114.312 15.5C114.312 14.25 114.385 13.1875 114.531 12.3125C114.677 11.4375 114.969 10.7188 115.406 10.1562C115.844 9.59375 116.469 9.1875 117.281 8.9375C118.115 8.6875 119.208 8.5625 120.562 8.5625C121.917 8.5625 123.271 8.57292 124.625 8.59375C126 8.61458 127.375 8.625 128.75 8.625C129.167 8.625 129.583 8.61458 130 8.59375C130.417 8.55208 130.833 8.58333 131.25 8.6875C131.5 8.72917 131.719 8.80208 131.906 8.90625C132.094 8.98958 132.188 9.1875 132.188 9.5C132.188 10.25 131.938 10.8125 131.438 11.1875C130.938 11.5417 130.344 11.7812 129.656 11.9062C128.969 12.0312 128.25 12.0938 127.5 12.0938C126.771 12.0729 126.167 12.0625 125.688 12.0625H121.625C121.208 12.0625 120.792 12.0625 120.375 12.0625C119.958 12.0625 119.542 12.0833 119.125 12.125C119 12.4375 118.917 12.7604 118.875 13.0938C118.833 13.4271 118.812 13.7708 118.812 14.125C118.812 16.3958 118.865 18.6354 118.969 20.8438C119.094 23.0521 119.208 25.2917 119.312 27.5625C120.604 27.4583 121.885 27.3333 123.156 27.1875C124.427 27.0417 125.708 26.875 127 26.6875C127.188 26.6875 127.354 26.6771 127.5 26.6562C127.667 26.6354 127.833 26.625 128 26.625C128.438 26.625 128.74 26.7396 128.906 26.9688C129.094 27.1979 129.188 27.5208 129.188 27.9375C129.188 28.2292 129.167 28.5 129.125 28.75C129.104 29 129.042 29.25 128.938 29.5C128.792 29.9167 128.552 30.2188 128.219 30.4062C127.885 30.5938 127.51 30.7292 127.094 30.8125C126.677 30.875 126.24 30.9062 125.781 30.9062C125.344 30.9062 124.958 30.9167 124.625 30.9375C123.75 30.9792 122.885 31.0104 122.031 31.0312C121.198 31.0521 120.354 31.0833 119.5 31.125C119.521 31.5625 119.552 32.2188 119.594 33.0938C119.635 33.9688 119.677 34.9583 119.719 36.0625C119.781 37.1458 119.844 38.2708 119.906 39.4375C119.99 40.6042 120.073 41.7083 120.156 42.75C120.24 43.7708 120.333 44.6667 120.438 45.4375C120.542 46.2083 120.646 46.7292 120.75 47C120.979 47.4375 121.24 47.7292 121.531 47.875C121.823 48 122.208 48.0625 122.688 48.0625C123.458 48.0625 124.271 47.9167 125.125 47.625C125.979 47.3125 126.812 46.9271 127.625 46.4688C128.438 45.9896 129.208 45.4688 129.938 44.9062C130.688 44.3438 131.333 43.7917 131.875 43.25C132.104 43.0625 132.333 42.875 132.562 42.6875C132.792 42.4792 133.062 42.375 133.375 42.375C133.688 42.375 133.99 42.4688 134.281 42.6562C134.573 42.8438 134.833 43.0833 135.062 43.375C135.292 43.6458 135.469 43.9479 135.594 44.2812C135.74 44.6146 135.812 44.9167 135.812 45.1875ZM202.406 9.5C202.406 10.125 202.24 10.6146 201.906 10.9688C201.573 11.3229 201.156 11.5833 200.656 11.75C200.156 11.9167 199.625 12.0208 199.062 12.0625C198.5 12.1042 197.99 12.125 197.531 12.125C196.615 12.125 195.698 12.1146 194.781 12.0938C193.865 12.0729 192.948 12.0625 192.031 12.0625C191.594 12.0625 191.156 12.0625 190.719 12.0625C190.281 12.0625 189.844 12.0833 189.406 12.125C189.24 12.4792 189.135 12.8438 189.094 13.2188C189.052 13.5729 189.031 13.9375 189.031 14.3125C189.031 16.2708 189.104 18.2083 189.25 20.125C189.396 22.0417 189.552 23.9792 189.719 25.9375C190.969 25.8333 192.219 25.7083 193.469 25.5625C194.719 25.4167 195.99 25.25 197.281 25.0625C197.448 25.0625 197.604 25.0521 197.75 25.0312C197.896 25.0104 198.052 25 198.219 25C199.052 25 199.469 25.4583 199.469 26.375C199.469 26.625 199.438 26.875 199.375 27.125C199.333 27.375 199.26 27.625 199.156 27.875C199.01 28.2917 198.771 28.6042 198.438 28.8125C198.104 29 197.729 29.1354 197.312 29.2188C196.896 29.2812 196.458 29.3125 196 29.3125C195.562 29.2917 195.177 29.2917 194.844 29.3125L189.969 29.5C190.094 31.4792 190.229 33.4375 190.375 35.375C190.521 37.3125 190.677 39.2708 190.844 41.25C191.01 42.75 191.146 44.2604 191.25 45.7812C191.375 47.3021 191.552 48.8125 191.781 50.3125V50.8125C191.781 51.2917 191.646 51.6146 191.375 51.7812C191.104 51.9271 190.76 52 190.344 52C189.573 52 188.844 51.875 188.156 51.625C187.698 51.4583 187.354 51.2604 187.125 51.0312C186.896 50.7812 186.729 50.5104 186.625 50.2188C186.542 49.9062 186.49 49.5729 186.469 49.2188C186.448 48.8646 186.427 48.4792 186.406 48.0625C186.219 44.9167 186.01 41.7917 185.781 38.6875C185.552 35.5625 185.344 32.4167 185.156 29.25C185.031 26.9167 184.896 24.6042 184.75 22.3125C184.604 20.0208 184.531 17.7083 184.531 15.375C184.531 14.1458 184.604 13.1042 184.75 12.25C184.917 11.375 185.219 10.6667 185.656 10.125C186.094 9.58333 186.719 9.1875 187.531 8.9375C188.344 8.6875 189.406 8.5625 190.719 8.5625C192.073 8.5625 193.417 8.57292 194.75 8.59375C196.083 8.61458 197.427 8.625 198.781 8.625C199.26 8.625 199.719 8.61458 200.156 8.59375C200.594 8.55208 201.031 8.58333 201.469 8.6875C201.719 8.72917 201.938 8.80208 202.125 8.90625C202.312 8.98958 202.406 9.1875 202.406 9.5ZM222.281 9.5C222.281 10.125 222.115 10.6146 221.781 10.9688C221.448 11.3229 221.031 11.5833 220.531 11.75C220.031 11.9167 219.5 12.0208 218.938 12.0625C218.375 12.1042 217.865 12.125 217.406 12.125C216.49 12.125 215.573 12.1146 214.656 12.0938C213.74 12.0729 212.823 12.0625 211.906 12.0625C211.469 12.0625 211.031 12.0625 210.594 12.0625C210.156 12.0625 209.719 12.0833 209.281 12.125C209.115 12.4792 209.01 12.8438 208.969 13.2188C208.927 13.5729 208.906 13.9375 208.906 14.3125C208.906 16.2708 208.979 18.2083 209.125 20.125C209.271 22.0417 209.427 23.9792 209.594 25.9375C210.844 25.8333 212.094 25.7083 213.344 25.5625C214.594 25.4167 215.865 25.25 217.156 25.0625C217.323 25.0625 217.479 25.0521 217.625 25.0312C217.771 25.0104 217.927 25 218.094 25C218.927 25 219.344 25.4583 219.344 26.375C219.344 26.625 219.312 26.875 219.25 27.125C219.208 27.375 219.135 27.625 219.031 27.875C218.885 28.2917 218.646 28.6042 218.312 28.8125C217.979 29 217.604 29.1354 217.188 29.2188C216.771 29.2812 216.333 29.3125 215.875 29.3125C215.438 29.2917 215.052 29.2917 214.719 29.3125L209.844 29.5C209.969 31.4792 210.104 33.4375 210.25 35.375C210.396 37.3125 210.552 39.2708 210.719 41.25C210.885 42.75 211.021 44.2604 211.125 45.7812C211.25 47.3021 211.427 48.8125 211.656 50.3125V50.8125C211.656 51.2917 211.521 51.6146 211.25 51.7812C210.979 51.9271 210.635 52 210.219 52C209.448 52 208.719 51.875 208.031 51.625C207.573 51.4583 207.229 51.2604 207 51.0312C206.771 50.7812 206.604 50.5104 206.5 50.2188C206.417 49.9062 206.365 49.5729 206.344 49.2188C206.323 48.8646 206.302 48.4792 206.281 48.0625C206.094 44.9167 205.885 41.7917 205.656 38.6875C205.427 35.5625 205.219 32.4167 205.031 29.25C204.906 26.9167 204.771 24.6042 204.625 22.3125C204.479 20.0208 204.406 17.7083 204.406 15.375C204.406 14.1458 204.479 13.1042 204.625 12.25C204.792 11.375 205.094 10.6667 205.531 10.125C205.969 9.58333 206.594 9.1875 207.406 8.9375C208.219 8.6875 209.281 8.5625 210.594 8.5625C211.948 8.5625 213.292 8.57292 214.625 8.59375C215.958 8.61458 217.302 8.625 218.656 8.625C219.135 8.625 219.594 8.61458 220.031 8.59375C220.469 8.55208 220.906 8.58333 221.344 8.6875C221.594 8.72917 221.812 8.80208 222 8.90625C222.188 8.98958 222.281 9.1875 222.281 9.5ZM242.344 47.5C242.344 48.1042 242.188 48.6771 241.875 49.2188C241.562 49.7396 241.135 50.125 240.594 50.375C240.427 50.4583 240.021 50.5417 239.375 50.625C238.729 50.6875 238.031 50.75 237.281 50.8125C236.531 50.875 235.812 50.9375 235.125 51C234.458 51.0625 233.99 51.1042 233.719 51.125C233.656 51.4792 233.49 51.7292 233.219 51.875C232.948 52 232.656 52.0625 232.344 52.0625C231.99 52.0625 231.583 52.0104 231.125 51.9062C230.667 51.8021 230.26 51.6875 229.906 51.5625C228.969 51.6875 228.021 51.8229 227.062 51.9688C226.104 52.1146 225.135 52.1875 224.156 52.1875C223.406 52.1875 223.031 51.8333 223.031 51.125C223.031 50.4167 223.229 49.875 223.625 49.5C224.021 49.125 224.5 48.8438 225.062 48.6562C225.625 48.4688 226.229 48.3438 226.875 48.2812C227.521 48.2188 228.094 48.1458 228.594 48.0625C228.49 42.1458 228.375 36.2708 228.25 30.4375C228.146 24.6042 228.094 18.7292 228.094 12.8125C227.24 12.875 226.406 12.9375 225.594 13C224.781 13.0417 223.969 13.0625 223.156 13.0625C222.99 13.0625 222.812 13.0625 222.625 13.0625C222.438 13.0417 222.26 13.0104 222.094 12.9688C221.948 12.9062 221.823 12.8229 221.719 12.7188C221.594 12.5938 221.531 12.4167 221.531 12.1875C221.531 11.7917 221.615 11.4479 221.781 11.1562C221.948 10.8438 222.167 10.5938 222.438 10.4062C222.729 10.1979 223.042 10.0312 223.375 9.90625C223.708 9.78125 224.052 9.6875 224.406 9.625C225.302 9.45833 226.208 9.32292 227.125 9.21875C228.062 9.09375 228.99 8.97917 229.906 8.875C230.844 8.75 231.771 8.625 232.688 8.5C233.625 8.375 234.552 8.20833 235.469 8C236.344 7.8125 237.219 7.57292 238.094 7.28125C238.969 6.96875 239.865 6.8125 240.781 6.8125C241.281 6.8125 241.615 7 241.781 7.375C241.948 7.72917 242.031 8.125 242.031 8.5625C242.031 8.91667 241.99 9.26042 241.906 9.59375C241.844 9.90625 241.698 10.2083 241.469 10.5C241.344 10.6667 241.062 10.8333 240.625 11C240.208 11.1458 239.698 11.2812 239.094 11.4062C238.51 11.5312 237.875 11.6562 237.188 11.7812C236.521 11.8854 235.865 11.9896 235.219 12.0938C234.594 12.1771 234.021 12.25 233.5 12.3125C232.979 12.375 232.594 12.4167 232.344 12.4375C232.573 15.3333 232.729 18.2292 232.812 21.125C232.917 24.0208 233 26.9167 233.062 29.8125C233.125 32.7083 233.188 35.6042 233.25 38.5C233.312 41.3958 233.427 44.2917 233.594 47.1875C234.781 47 235.979 46.8229 237.188 46.6562C238.396 46.4688 239.615 46.375 240.844 46.375C241.198 46.375 241.531 46.4583 241.844 46.625C242.177 46.7708 242.344 47.0625 242.344 47.5ZM267.156 42.75C267.156 43.0625 267.104 43.375 267 43.6875C266.917 43.9792 266.823 44.2708 266.719 44.5625C266.26 45.75 265.698 46.8542 265.031 47.875C264.365 48.875 263.594 49.7396 262.719 50.4688C261.844 51.1979 260.854 51.7708 259.75 52.1875C258.646 52.6042 257.427 52.8125 256.094 52.8125C254.323 52.8125 252.802 52.4375 251.531 51.6875C250.26 50.9375 249.177 49.9688 248.281 48.7812C247.385 47.5729 246.646 46.2292 246.062 44.75C245.5 43.2708 245.052 41.7917 244.719 40.3125C244.219 38.1667 243.833 36.0208 243.562 33.875C243.292 31.7083 243.156 29.5417 243.156 27.375C243.156 26.1042 243.208 24.7917 243.312 23.4375C243.438 22.0833 243.646 20.75 243.938 19.4375C244.229 18.1042 244.625 16.8229 245.125 15.5938C245.625 14.3438 246.25 13.1979 247 12.1562C247.75 11.0938 248.635 10.1562 249.656 9.34375C250.698 8.53125 251.906 7.89583 253.281 7.4375C253.781 7.25 254.302 7.125 254.844 7.0625C255.385 6.97917 255.927 6.9375 256.469 6.9375C257.552 6.9375 258.583 7.11458 259.562 7.46875C260.542 7.82292 261.396 8.32292 262.125 8.96875C262.875 9.61458 263.458 10.3958 263.875 11.3125C264.312 12.2292 264.531 13.25 264.531 14.375C264.531 14.75 264.448 15.0312 264.281 15.2188C264.115 15.4062 263.823 15.5 263.406 15.5C262.635 15.5 262.031 15.375 261.594 15.125C261.177 14.875 260.833 14.5625 260.562 14.1875C260.292 13.8125 260.062 13.4062 259.875 12.9688C259.708 12.5312 259.5 12.125 259.25 11.75C259 11.375 258.667 11.0625 258.25 10.8125C257.833 10.5625 257.26 10.4375 256.531 10.4375C255.802 10.4375 255.115 10.5833 254.469 10.875C253.844 11.1458 253.26 11.5104 252.719 11.9688C252.198 12.4271 251.719 12.9479 251.281 13.5312C250.865 14.0938 250.49 14.6667 250.156 15.25C249.281 16.875 248.667 18.6146 248.312 20.4688C247.958 22.3021 247.781 24.1458 247.781 26C247.781 26.625 247.802 27.4375 247.844 28.4375C247.906 29.4167 247.99 30.5 248.094 31.6875C248.219 32.875 248.385 34.1354 248.594 35.4688C248.802 36.7812 249.052 38.0729 249.344 39.3438C249.656 40.6146 250.021 41.8333 250.438 43C250.875 44.1667 251.365 45.1875 251.906 46.0625C252.469 46.9375 253.094 47.6354 253.781 48.1562C254.49 48.6771 255.281 48.9375 256.156 48.9375C257.052 48.9375 257.844 48.7083 258.531 48.25C259.219 47.7708 259.802 47.1771 260.281 46.4688C260.781 45.7396 261.188 44.9583 261.5 44.125C261.833 43.2708 262.094 42.4792 262.281 41.75C262.344 41.5417 262.396 41.3542 262.438 41.1875C262.5 41.0208 262.573 40.875 262.656 40.75C262.76 40.625 262.885 40.5312 263.031 40.4688C263.177 40.4062 263.385 40.375 263.656 40.375C263.948 40.375 264.292 40.4375 264.688 40.5625C265.104 40.6667 265.49 40.8229 265.844 41.0312C266.219 41.2396 266.531 41.4896 266.781 41.7812C267.031 42.0729 267.156 42.3958 267.156 42.75ZM290.938 45.1875C290.938 45.5417 290.792 45.8854 290.5 46.2188C290.229 46.5521 289.896 46.875 289.5 47.1875C289.104 47.5 288.698 47.7917 288.281 48.0625C287.865 48.3125 287.521 48.5208 287.25 48.6875C286.542 49.1458 285.833 49.5729 285.125 49.9688C284.438 50.3646 283.719 50.7083 282.969 51C282.24 51.2917 281.479 51.5208 280.688 51.6875C279.917 51.8542 279.104 51.9375 278.25 51.9375L277.75 52C277.062 52 276.375 51.9271 275.688 51.7812C275.021 51.6146 274.396 51.375 273.812 51.0625C273.229 50.7292 272.708 50.3125 272.25 49.8125C271.792 49.3125 271.438 48.7083 271.188 48C271 47.4375 270.854 46.7708 270.75 46C270.646 45.2292 270.562 44.4271 270.5 43.5938C270.458 42.7604 270.417 41.9479 270.375 41.1562C270.354 40.3438 270.333 39.625 270.312 39C270 32.625 269.75 26.25 269.562 19.875C269.521 19.1458 269.49 18.4167 269.469 17.6875C269.448 16.9583 269.438 16.2292 269.438 15.5C269.438 14.25 269.51 13.1875 269.656 12.3125C269.802 11.4375 270.094 10.7188 270.531 10.1562C270.969 9.59375 271.594 9.1875 272.406 8.9375C273.24 8.6875 274.333 8.5625 275.688 8.5625C277.042 8.5625 278.396 8.57292 279.75 8.59375C281.125 8.61458 282.5 8.625 283.875 8.625C284.292 8.625 284.708 8.61458 285.125 8.59375C285.542 8.55208 285.958 8.58333 286.375 8.6875C286.625 8.72917 286.844 8.80208 287.031 8.90625C287.219 8.98958 287.312 9.1875 287.312 9.5C287.312 10.25 287.062 10.8125 286.562 11.1875C286.062 11.5417 285.469 11.7812 284.781 11.9062C284.094 12.0312 283.375 12.0938 282.625 12.0938C281.896 12.0729 281.292 12.0625 280.812 12.0625H276.75C276.333 12.0625 275.917 12.0625 275.5 12.0625C275.083 12.0625 274.667 12.0833 274.25 12.125C274.125 12.4375 274.042 12.7604 274 13.0938C273.958 13.4271 273.938 13.7708 273.938 14.125C273.938 16.3958 273.99 18.6354 274.094 20.8438C274.219 23.0521 274.333 25.2917 274.438 27.5625C275.729 27.4583 277.01 27.3333 278.281 27.1875C279.552 27.0417 280.833 26.875 282.125 26.6875C282.312 26.6875 282.479 26.6771 282.625 26.6562C282.792 26.6354 282.958 26.625 283.125 26.625C283.562 26.625 283.865 26.7396 284.031 26.9688C284.219 27.1979 284.312 27.5208 284.312 27.9375C284.312 28.2292 284.292 28.5 284.25 28.75C284.229 29 284.167 29.25 284.062 29.5C283.917 29.9167 283.677 30.2188 283.344 30.4062C283.01 30.5938 282.635 30.7292 282.219 30.8125C281.802 30.875 281.365 30.9062 280.906 30.9062C280.469 30.9062 280.083 30.9167 279.75 30.9375C278.875 30.9792 278.01 31.0104 277.156 31.0312C276.323 31.0521 275.479 31.0833 274.625 31.125C274.646 31.5625 274.677 32.2188 274.719 33.0938C274.76 33.9688 274.802 34.9583 274.844 36.0625C274.906 37.1458 274.969 38.2708 275.031 39.4375C275.115 40.6042 275.198 41.7083 275.281 42.75C275.365 43.7708 275.458 44.6667 275.562 45.4375C275.667 46.2083 275.771 46.7292 275.875 47C276.104 47.4375 276.365 47.7292 276.656 47.875C276.948 48 277.333 48.0625 277.812 48.0625C278.583 48.0625 279.396 47.9167 280.25 47.625C281.104 47.3125 281.938 46.9271 282.75 46.4688C283.562 45.9896 284.333 45.4688 285.062 44.9062C285.812 44.3438 286.458 43.7917 287 43.25C287.229 43.0625 287.458 42.875 287.688 42.6875C287.917 42.4792 288.188 42.375 288.5 42.375C288.812 42.375 289.115 42.4688 289.406 42.6562C289.698 42.8438 289.958 43.0833 290.188 43.375C290.417 43.6458 290.594 43.9479 290.719 44.2812C290.865 44.6146 290.938 44.9167 290.938 45.1875Z" fill="#FE2D02"/>
<path d="M188.331 29.7432L188.331 29.743C188.283 29.6688 188.219 29.6057 188.144 29.5578C188.069 29.5099 187.985 29.4783 187.898 29.4652C187.81 29.452 187.72 29.4576 187.635 29.4815L187.569 29.4999H187.5C186.439 29.4999 185.422 29.0785 184.672 28.3284C183.931 27.588 183.511 26.5874 183.5 25.5416C183.448 25.189 183.523 24.8538 183.613 24.5754C183.667 24.4086 183.746 24.2085 183.816 24.0338C183.855 23.9347 183.892 23.8438 183.918 23.7717C184.009 23.5249 184.048 23.3502 184.041 23.2136C184.036 23.1178 184.007 23.0224 183.901 22.9139C183.062 22.4852 182.33 21.8725 181.761 21.1213L181.761 21.1213C181.178 20.3526 180.781 19.4596 180.601 18.5122C180.58 18.4241 180.538 18.3424 180.478 18.2745C180.448 18.2402 180.413 18.21 180.376 18.1844C177.278 19.0611 174.56 17.8256 173.263 15.7541C171.924 13.6176 172.153 10.6818 174.831 8.46474L174.843 8.45535L174.855 8.44666C174.931 8.3905 174.99 8.3136 175.025 8.22495C175.04 8.18677 175.05 8.14707 175.055 8.10675C168.145 2.81834 158.998 2.28573 150.895 5.1243C142.72 7.98813 135.697 14.254 133.178 22.378L133.17 22.4032L133.159 22.4274C133.094 22.5802 133.1 22.6826 133.122 22.7562C133.147 22.8389 133.209 22.9348 133.327 23.0375C133.572 23.2509 133.968 23.4096 134.318 23.4796L134.355 23.487L134.391 23.5C134.995 23.7196 135.789 23.6656 136.751 23.4214C137.591 23.208 138.487 22.8699 139.406 22.5233C139.529 22.4766 139.654 22.4297 139.778 22.383C140.806 21.9973 141.863 21.6179 142.812 21.4692C143.758 21.3211 144.718 21.3829 145.442 22.026L145.468 22.0486L145.49 22.0744C146.225 22.9317 146.264 24.0679 146.084 25.1878C145.936 26.1075 145.621 27.1209 145.313 28.1125C145.245 28.3311 145.178 28.5487 145.112 28.7641C144.741 29.9863 144.434 31.1485 144.43 32.174C144.426 33.1746 144.708 33.9981 145.483 34.62L145.511 34.6422L145.535 34.6681C145.7 34.844 146.001 35.0553 146.39 35.2408C146.772 35.4236 147.203 35.5639 147.603 35.6212C148.013 35.6798 148.335 35.6438 148.545 35.5395C148.704 35.4602 148.838 35.3241 148.891 35.0383C148.637 34.0498 148.506 33.0335 148.5 32.0126L148.5 32.0013L148.5 32.0013C148.762 16.8861 171.239 16.8861 171.5 32.0013L171.5 32.0101H171.5C171.499 33.7169 171.119 35.4021 170.386 36.9436C169.654 38.4851 168.587 39.8441 167.264 40.9221C165.94 42.0001 164.394 42.7701 162.736 43.1761M188.331 29.7432L162.736 43.1761M188.331 29.7432C188.376 29.8121 188.408 29.8892 188.423 29.9701C188.831 35.9145 187.371 41.838 184.247 46.9122C181.119 51.9937 176.478 55.9683 170.977 58.2789L170.963 58.2845L170.95 58.2908C170.809 58.3601 170.713 58.3573 170.643 58.3384C170.562 58.3167 170.464 58.2587 170.355 58.1423C170.13 57.9012 169.952 57.5086 169.864 57.1657L169.856 57.1323L169.843 57.1003C169.606 56.5228 169.625 55.7374 169.822 54.77C169.991 53.9434 170.272 53.0562 170.56 52.1452C170.606 51.9998 170.652 51.8537 170.698 51.7072C171.026 50.6642 171.343 49.5924 171.437 48.6398C171.531 47.6913 171.414 46.7402 170.735 46.0572L170.711 46.0338L170.685 46.0136C169.79 45.325 168.653 45.3474 167.545 45.5877C166.636 45.7845 165.643 46.1528 164.672 46.5132C164.455 46.5936 164.239 46.6736 164.026 46.7512C162.825 47.1879 161.68 47.5557 160.656 47.6137C159.656 47.6703 158.817 47.4309 158.153 46.6869L158.13 46.6612L158.104 46.6389C157.925 46.4871 157.702 46.1866 157.502 45.7864C157.305 45.3935 157.153 44.9473 157.089 44.5352C157.024 44.1114 157.063 43.7903 157.169 43.5927C157.248 43.445 157.394 43.308 157.743 43.2826M188.331 29.7432L157.743 43.2826M162.736 43.1761C161.099 43.5769 159.395 43.6132 157.743 43.2826M162.736 43.1761C162.736 43.1761 162.736 43.176 162.736 43.176L157.743 43.2826M182.159 20.8193C182.697 21.5289 183.392 22.1042 184.19 22.4999C184.766 23.0094 184.518 23.6267 184.266 24.2549C184.098 24.6747 183.928 25.0993 184 25.4999L182.159 20.8193ZM182.159 20.8193C181.622 20.1096 181.256 19.2849 181.09 18.4099M182.159 20.8193L181.09 18.4099M181.09 18.4099C181.052 18.237 180.97 18.0766 180.853 17.9438L181.09 18.4099Z" stroke="#FE2D02"/>
<path d="M171.437 45.3329L171.454 45.3522L171.473 45.3697C172.249 46.0756 172.539 46.8864 172.563 47.7909C172.587 48.7224 172.33 49.7486 171.986 50.8513C171.9 51.1273 171.809 51.4093 171.716 51.6948C171.447 52.5193 171.17 53.3719 170.999 54.1867C170.766 55.2924 170.703 56.4283 171.151 57.4676L171.151 57.4688C171.236 57.6648 171.218 57.813 171.121 57.9697C171.007 58.1565 170.767 58.3706 170.368 58.593C169.575 59.0351 168.351 59.4021 166.97 59.6918C164.222 60.2683 161.051 60.4999 160 60.4999V60.4998L159.991 60.5C140.744 60.8633 126.422 40.5155 133.158 22.5656L133.164 22.5503L133.169 22.5347C133.235 22.3156 133.313 22.2493 133.348 22.2271C133.387 22.2023 133.458 22.1788 133.602 22.1926C133.75 22.2068 133.927 22.2555 134.139 22.3284C134.207 22.3518 134.287 22.3808 134.371 22.4111C134.512 22.4623 134.664 22.5175 134.791 22.5571L134.821 22.5667L134.853 22.5722C135.529 22.6918 136.278 22.5707 137.021 22.3656C137.749 22.1645 138.529 21.8653 139.297 21.5705C139.318 21.5626 139.338 21.5547 139.359 21.5467L139.381 21.5384L139.402 21.5281C142.562 19.9649 144.915 20.2078 146.144 21.3716C147.372 22.5358 147.743 24.8749 146.36 28.1136L146.352 28.132L146.346 28.1509C146.074 28.9611 145.833 29.7462 145.678 30.4674C145.523 31.1837 145.444 31.8704 145.519 32.4741C145.595 33.0892 145.837 33.6487 146.345 34.0429C146.84 34.428 147.52 34.5999 148.36 34.5999H148.369L148.378 34.5996C148.491 34.5954 148.601 34.6292 148.692 34.6954C148.781 34.7608 148.847 34.8544 148.878 34.9613C149.424 37.044 150.544 38.9317 152.11 40.4093C153.673 41.8844 155.619 42.8915 157.726 43.3169C157.899 43.3649 157.966 43.4421 158.013 43.5381C158.079 43.6728 158.112 43.8638 158.14 44.1552C158.143 44.1921 158.147 44.2311 158.15 44.2717C158.172 44.5141 158.199 44.8148 158.275 45.0878C158.369 45.4226 158.549 45.7728 158.922 46.0187C159.814 46.6945 160.944 46.6709 162.045 46.4321C162.954 46.2353 163.947 45.867 164.918 45.5066C165.135 45.4262 165.351 45.3462 165.565 45.2686C166.765 44.8319 167.91 44.4641 168.934 44.4061C169.934 44.3495 170.773 44.5889 171.437 45.3329Z" stroke="#FE2D02"/>
<path d="M147.848 10.1354L147.839 10.1253C147.763 10.0407 147.703 10.0178 147.66 10.01C147.609 10.0009 147.53 10.004 147.408 10.0503C147.149 10.1487 146.829 10.3915 146.467 10.7427C146.155 11.0452 145.85 11.3892 145.562 11.7149C145.523 11.7585 145.484 11.8019 145.446 11.8447C145.289 12.0223 145.134 12.1939 144.993 12.338C144.874 12.459 144.745 12.5809 144.616 12.6728C144.581 12.7129 144.553 12.7583 144.533 12.8075L147.848 10.1354ZM147.848 10.1354L147.858 10.1451M147.848 10.1354L147.858 10.1451M147.858 10.1451C147.905 10.1915 147.942 10.2467 147.967 10.3074L147.967 10.3079C147.993 10.3685 148.006 10.4338 148.006 10.5C148.006 10.5661 147.993 10.6314 147.967 10.692L147.967 10.6925C147.947 10.7415 147.919 10.787 147.884 10.8272C147.755 10.9191 147.626 11.041 147.507 11.162C147.366 11.3061 147.211 11.4777 147.053 11.6553C147.015 11.6981 146.977 11.7415 146.938 11.7851C146.65 12.1108 146.345 12.4548 146.033 12.7573C145.671 13.1085 145.351 13.3513 145.092 13.4497C144.97 13.4959 144.89 13.4991 144.84 13.49C144.797 13.4822 144.737 13.4592 144.661 13.3747L144.652 13.3647M147.858 10.1451L144.652 13.3647M144.652 13.3647L144.642 13.3551M144.652 13.3647L144.642 13.3551M144.642 13.3551C144.595 13.3086 144.558 13.2533 144.533 13.1924L144.642 13.3551ZM144.494 13C144.494 12.9341 144.507 12.8687 144.533 12.8077V13.1922C144.507 13.1311 144.494 13.0658 144.494 13Z" fill="url(#paint0_linear_0_1)" stroke="#FE2D02"/>
<path d="M152.892 12.564L152.892 12.5639C153.006 12.5218 153.131 12.5227 153.245 12.566L157.206 14.5468C157.307 14.6122 157.381 14.7121 157.415 14.8282C157.45 14.9496 157.438 15.0796 157.381 15.1922L157.381 15.1923C157.324 15.3049 157.226 15.3918 157.108 15.4356L157.108 15.4357C156.994 15.4778 156.869 15.4769 156.756 15.4335L152.794 13.4528C152.693 13.3874 152.619 13.2876 152.585 13.1714C152.55 13.05 152.563 12.92 152.619 12.8074L152.62 12.8073C152.676 12.6946 152.774 12.6077 152.892 12.564Z" fill="url(#paint1_linear_0_1)" stroke="#FE2D02"/>
<path d="M163 13.4958C163.13 13.4958 163.254 13.5459 163.348 13.6354C163.489 13.7923 163.712 14.0008 163.947 14.2204C164.042 14.3094 164.139 14.4002 164.233 14.4902C164.589 14.8297 164.945 15.1907 165.198 15.5321C165.324 15.7023 165.412 15.8517 165.462 15.9773C165.513 16.1043 165.513 16.1753 165.507 16.2067C165.507 16.2067 165.493 16.3736 164.941 16.5008C164.934 16.4984 164.925 16.4949 164.914 16.49C164.856 16.4643 164.772 16.4148 164.664 16.3336C164.448 16.1716 164.197 15.9319 163.932 15.66C163.761 15.4841 163.597 15.3077 163.439 15.1381C163.352 15.0441 163.266 14.9522 163.182 14.8636C163.069 14.7432 162.959 14.6296 162.86 14.535C162.786 14.4645 162.702 14.3886 162.617 14.3274C162.539 14.2364 162.496 14.1204 162.496 13.9999C162.496 13.8662 162.549 13.738 162.643 13.6435C162.738 13.5489 162.866 13.4958 163 13.4958ZM164.958 16.5058C164.958 16.5058 164.958 16.5057 164.957 16.5056L164.958 16.5058Z" fill="url(#paint2_linear_0_1)" stroke="#FE2D02"/>
<path d="M164.354 8.64641C164.26 8.5527 164.133 8.5 164 8.5H160C159.867 8.5 159.74 8.55269 159.646 8.64641L164.354 8.64641ZM164.354 8.64641C164.447 8.74024 164.5 8.86744 164.5 9M164.354 8.64641L164.5 9M164.5 9C164.5 9.13256 164.447 9.25976 164.354 9.35359C164.26 9.4473 164.133 9.5 164 9.5H160C159.867 9.5 159.74 9.44731 159.646 9.35359L164.5 9ZM159.5 9C159.5 8.86744 159.553 8.74024 159.646 8.64641V9.35359C159.553 9.25976 159.5 9.13256 159.5 9Z" fill="url(#paint3_linear_0_1)" stroke="#FE2D02"/>
<path d="M173.348 21.6354C173.489 21.7923 173.712 22.0008 173.947 22.2204C174.042 22.3094 174.139 22.4002 174.233 22.4902C174.589 22.8297 174.945 23.1907 175.198 23.5321C175.324 23.7023 175.412 23.8517 175.462 23.9773C175.513 24.1043 175.513 24.1753 175.507 24.2067C175.507 24.2067 175.493 24.3736 174.941 24.5008C174.934 24.4984 174.925 24.4949 174.914 24.49C174.856 24.4643 174.772 24.4148 174.664 24.3336C174.448 24.1716 174.196 23.9319 173.932 23.66C173.761 23.4841 173.597 23.3077 173.439 23.1381C173.352 23.0441 173.266 22.9522 173.182 22.8636C173.069 22.7432 172.959 22.6296 172.86 22.535C172.786 22.4645 172.702 22.3886 172.617 22.3274C172.539 22.2364 172.496 22.1204 172.496 21.9999C172.496 21.8662 172.549 21.738 172.643 21.6435C172.738 21.5489 172.866 21.4958 173 21.4958C173.13 21.4958 173.254 21.5459 173.348 21.6354ZM174.957 24.5056C174.958 24.5057 174.958 24.5058 174.958 24.5058L174.957 24.5056Z" fill="url(#paint4_linear_0_1)" stroke="#FE2D02"/>
<path d="M180.071 32.6153L180.532 32.8078C180.553 32.7581 180.582 32.7121 180.617 32.6715C180.859 32.497 181.124 32.201 181.359 31.9375C181.388 31.905 181.417 31.8723 181.446 31.8395C181.695 31.5595 181.95 31.2735 182.211 31.028C182.511 30.7461 182.763 30.5737 182.96 30.5147C183.049 30.4882 183.109 30.4899 183.154 30.5013C183.196 30.5123 183.261 30.5416 183.344 30.6308L183.351 30.638L183.358 30.645C183.405 30.6915 183.442 30.7467 183.467 30.8074L183.467 30.8076C183.493 30.8685 183.506 30.9338 183.506 30.9999C183.506 31.066 183.493 31.1313 183.467 31.1922L183.467 31.1925C183.447 31.242 183.418 31.2878 183.383 31.3281C183.141 31.5026 182.876 31.7987 182.641 32.0623C182.612 32.0948 182.583 32.1275 182.553 32.1603C182.304 32.4403 182.05 32.7263 181.789 32.9718C181.489 33.2537 181.236 33.4261 181.039 33.4851C180.951 33.5117 180.891 33.5099 180.846 33.4986C180.803 33.4875 180.739 33.4582 180.656 33.369L180.649 33.3618L180.642 33.3548C180.595 33.3085 180.558 33.2532 180.533 33.1922L180.071 33.3845M180.071 32.6153L180.533 32.8073C180.507 32.8686 180.494 32.9341 180.494 32.9999C180.494 33.0657 180.507 33.1312 180.533 33.1925L180.071 33.3845M180.071 32.6153C180.02 32.7372 179.994 32.8679 179.994 32.9999C179.994 33.1319 180.02 33.2626 180.071 33.3845M180.071 32.6153C180.122 32.4935 180.196 32.3829 180.29 32.2899C180.497 32.1544 180.768 31.8505 181.073 31.5067C181.873 30.6078 182.914 29.4363 183.71 30.2899L180.29 33.7099C180.196 33.617 180.122 33.5064 180.071 33.3845" stroke="#FE2D02"/>
<path d="M175.384 36.071L175.192 36.5325C175.242 36.5532 175.288 36.5818 175.328 36.617C175.503 36.8589 175.799 37.1242 176.062 37.3592C176.095 37.3882 176.128 37.4173 176.16 37.4464C176.44 37.6954 176.726 37.9499 176.972 38.2111C177.254 38.511 177.426 38.7633 177.485 38.9604C177.512 39.0489 177.51 39.1093 177.499 39.1536C177.488 39.1965 177.458 39.261 177.369 39.3442L177.362 39.351L177.355 39.3581C177.308 39.4048 177.253 39.4419 177.192 39.4671L177.192 39.4673C177.131 39.4926 177.066 39.5057 177 39.5057C176.934 39.5057 176.869 39.4926 176.808 39.4673L176.807 39.4672C176.758 39.4466 176.712 39.4181 176.672 39.3829C176.497 39.1409 176.201 38.8756 175.937 38.6406C175.905 38.6116 175.872 38.5825 175.839 38.5534C175.56 38.3044 175.273 38.0499 175.028 37.7887C174.746 37.4888 174.574 37.2365 174.515 37.0394C174.488 36.9509 174.49 36.8905 174.501 36.8462C174.512 36.8033 174.542 36.7388 174.631 36.6556L174.638 36.649L174.645 36.6421C174.691 36.5952 174.747 36.5579 174.808 36.5325L174.615 36.071M175.384 36.071L175.192 36.5327C175.131 36.5072 175.066 36.4941 175 36.4941C174.934 36.4941 174.869 36.5072 174.807 36.5327L174.615 36.071M175.384 36.071C175.263 36.0203 175.132 35.9941 175 35.9941C174.868 35.9941 174.737 36.0203 174.615 36.071M175.384 36.071C175.506 36.1218 175.617 36.1962 175.71 36.2899C175.845 36.4974 176.149 36.7676 176.493 37.0732C177.392 37.8725 178.563 38.9142 177.71 39.7099L174.29 36.2899C174.383 36.1962 174.494 36.1218 174.615 36.071" fill="url(#paint5_linear_0_1)" stroke="#FE2D02"/>
<path d="M177.646 50.3535C177.557 50.2645 177.505 50.1454 177.5 50.0201C177.521 49.791 177.507 49.5029 177.495 49.2386C177.494 49.2102 177.492 49.182 177.491 49.1542C177.477 48.8311 177.466 48.5144 177.492 48.2304C177.518 47.9381 177.579 47.7487 177.656 47.6415C177.708 47.568 177.788 47.5 178 47.5C178.133 47.5 178.26 47.5526 178.354 47.6465C178.354 47.6465 178.354 47.6465 178.354 47.6465C178.354 47.6465 178.354 47.6465 178.354 47.6465C178.443 47.7354 178.495 47.8545 178.5 47.9799C178.479 48.209 178.493 48.4971 178.505 48.7614C178.506 48.7898 178.508 48.818 178.509 48.8458C178.523 49.1689 178.534 49.4856 178.508 49.7696C178.482 50.0619 178.421 50.2513 178.344 50.3585C178.292 50.432 178.212 50.5 178 50.5C177.868 50.5 177.74 50.4473 177.646 50.3535Z" fill="url(#paint6_linear_0_1)" stroke="#FE2D02"/>
<path d="M178 42.5H182C182.133 42.5 182.26 42.5527 182.354 42.6465C182.447 42.7402 182.5 42.8674 182.5 43C182.5 43.1326 182.447 43.2598 182.354 43.3535C182.26 43.4473 182.133 43.5 182 43.5H178C177.867 43.5 177.74 43.4473 177.646 43.3535C177.553 43.2598 177.5 43.1326 177.5 43C177.5 42.8674 177.553 42.7402 177.646 42.6465C177.74 42.5527 177.867 42.5 178 42.5Z" fill="url(#paint7_linear_0_1)" stroke="#FE2D02"/>
<path d="M148.646 18.6465C148.74 18.5527 148.867 18.5 149 18.5C149.133 18.5 149.26 18.5527 149.354 18.6465C149.447 18.7402 149.5 18.8674 149.5 19V23C149.5 23.1326 149.447 23.2598 149.354 23.3535C149.26 23.4473 149.133 23.5 149 23.5C148.867 23.5 148.74 23.4473 148.646 23.3535C148.553 23.2598 148.5 23.1326 148.5 23V19C148.5 18.8674 148.553 18.7402 148.646 18.6465Z" fill="url(#paint8_linear_0_1)" stroke="#FE2D02"/>
<defs>
<linearGradient id="paint0_linear_0_1" x1="144" y1="11.75" x2="148.5" y2="11.75" gradientUnits="userSpaceOnUse">
<stop stop-color="#FDFBF7"/>
<stop offset="0.35" stop-color="#F5F0DF"/>
<stop offset="1" stop-color="#E3D7A9"/>
</linearGradient>
<linearGradient id="paint1_linear_0_1" x1="292.918" y1="67.1439" x2="328.072" y2="67.1439" gradientUnits="userSpaceOnUse">
<stop stop-color="#FDFBF7"/>
<stop offset="0.35" stop-color="#F5F0DF"/>
<stop offset="1" stop-color="#E3D7A9"/>
</linearGradient>
<linearGradient id="paint2_linear_0_1" x1="298.436" y1="73.1308" x2="314.573" y2="73.1308" gradientUnits="userSpaceOnUse">
<stop stop-color="#FDFBF7"/>
<stop offset="0.35" stop-color="#F5F0DF"/>
<stop offset="1" stop-color="#E3D7A9"/>
</linearGradient>
<linearGradient id="paint3_linear_0_1" x1="345" y1="26" x2="381" y2="26" gradientUnits="userSpaceOnUse">
<stop stop-color="#FDFBF7"/>
<stop offset="0.35" stop-color="#F5F0DF"/>
<stop offset="1" stop-color="#E3D7A9"/>
</linearGradient>
<linearGradient id="paint4_linear_0_1" x1="348.577" y1="113.203" x2="364.714" y2="113.203" gradientUnits="userSpaceOnUse">
<stop stop-color="#FDFBF7"/>
<stop offset="0.35" stop-color="#F5F0DF"/>
<stop offset="1" stop-color="#E3D7A9"/>
</linearGradient>
<linearGradient id="paint5_linear_0_1" x1="358.552" y1="188.435" x2="374.684" y2="188.435" gradientUnits="userSpaceOnUse">
<stop stop-color="#FDFBF7"/>
<stop offset="0.35" stop-color="#F5F0DF"/>
<stop offset="1" stop-color="#E3D7A9"/>
</linearGradient>
<linearGradient id="paint6_linear_0_1" x1="277.284" y1="243" x2="281.462" y2="243" gradientUnits="userSpaceOnUse">
<stop stop-color="#FDFBF7"/>
<stop offset="0.35" stop-color="#F5F0DF"/>
<stop offset="1" stop-color="#E3D7A9"/>
</linearGradient>
<linearGradient id="paint7_linear_0_1" x1="471" y1="128" x2="506.82" y2="128" gradientUnits="userSpaceOnUse">
<stop stop-color="#FDFBF7"/>
<stop offset="0.35" stop-color="#F5F0DF"/>
<stop offset="1" stop-color="#E3D7A9"/>
</linearGradient>
<linearGradient id="paint8_linear_0_1" x1="188" y1="144" x2="192" y2="144" gradientUnits="userSpaceOnUse">
<stop stop-color="#FDFBF7"/>
<stop offset="0.35" stop-color="#F5F0DF"/>
<stop offset="1" stop-color="#E3D7A9"/>
</linearGradient>
</defs>
</svg>
