<svg width="31" height="29" viewBox="0 0 31 29" fill="none" xmlns="http://www.w3.org/2000/svg">
<path d="M29.0129 13.6366C29.1971 16.2533 28.5071 18.8618 27.0334 21.101C25.5505 23.3541 23.3471 25.122 20.7277 26.1511L20.7149 26.1562L20.7066 26.16C20.7027 26.1566 20.6981 26.1524 20.6927 26.1471C20.6643 26.1186 20.6304 26.0725 20.5977 26.0098C20.5655 25.9482 20.541 25.8831 20.5257 25.8273L20.5161 25.7922L20.5015 25.7589C20.4243 25.5828 20.4168 25.3025 20.509 24.8788C20.5868 24.5212 20.717 24.1363 20.8571 23.7221C20.8796 23.6558 20.9022 23.5888 20.925 23.5211C21.0824 23.0522 21.2469 22.5377 21.2961 22.0701C21.3454 21.6019 21.2911 21.0607 20.8703 20.6652L20.8465 20.6428L20.8199 20.6236C20.2981 20.2482 19.6599 20.2761 19.1064 20.3883C18.6486 20.4811 18.1478 20.655 17.6767 20.8185C17.5733 20.8544 17.4713 20.8898 17.3716 20.9237C16.7891 21.1218 16.2638 21.2775 15.8049 21.3018C15.3653 21.3251 15.0399 21.2262 14.7864 20.9607L14.7628 20.9359L14.7359 20.9145C14.6882 20.8766 14.6011 20.7752 14.5142 20.6125C14.4306 20.4563 14.3688 20.2836 14.3441 20.1334C14.3205 19.9897 14.3388 19.9197 14.3467 19.8996C14.354 19.8967 14.3695 19.8916 14.3963 19.888C15.2183 20.0371 16.0652 20.018 16.8793 19.8315C16.8793 19.8315 16.8793 19.8315 16.8793 19.8315L29.0129 13.6366ZM29.0129 13.6366C29.0113 13.6351 29.0091 13.6334 29.006 13.6315C28.9995 13.6276 28.9904 13.6241 28.9793 13.6225C28.9683 13.621 28.957 13.6217 28.9467 13.6244L28.8846 13.6406H28.8204C28.2485 13.6406 27.6939 13.4284 27.28 13.0412C26.8753 12.6626 26.6371 12.1455 26.6255 11.5967C26.5959 11.3767 26.6479 11.18 26.6953 11.0423C26.7219 10.9652 26.7526 10.8918 26.7785 10.831C26.7847 10.8165 26.7905 10.8028 26.7961 10.7898C26.8158 10.7438 26.832 10.7059 26.8472 10.6672C26.861 10.6317 26.8701 10.6048 26.8761 10.5848C26.4766 10.378 26.1248 10.0939 25.845 9.74853L25.845 9.7485C25.5584 9.39481 25.3548 8.98595 25.2494 8.54916C23.7353 8.87966 22.3862 8.30058 21.7139 7.29648C21.3569 6.76343 21.1966 6.11364 21.3215 5.44775C21.438 4.82638 21.7948 4.23136 22.3959 3.72485C19.1607 1.55011 14.9384 1.34686 11.1656 2.58326C7.25694 3.86418 3.93597 6.65559 2.7512 10.2302L2.75046 10.2325C2.78264 10.2559 2.83029 10.2826 2.89277 10.3079C2.96321 10.3364 3.03838 10.3575 3.10479 10.3699L3.13991 10.3765L3.17374 10.388C3.39977 10.4648 3.72896 10.4537 4.18259 10.3459C4.57601 10.2525 4.99673 10.104 5.44358 9.94638C5.50343 9.92526 5.56375 9.90398 5.62453 9.88265C6.11962 9.70886 6.65309 9.52862 7.13969 9.45735C7.61963 9.38704 8.17262 9.40438 8.60718 9.76533L8.6333 9.78703L8.65625 9.81206C9.10083 10.297 9.1053 10.9257 9.01322 11.4619C8.9376 11.9022 8.77616 12.3877 8.62665 12.8372C8.5944 12.9342 8.56271 13.0295 8.53255 13.1223C8.35189 13.6784 8.21803 14.1658 8.21621 14.5801C8.21454 14.9632 8.32384 15.2439 8.617 15.464L8.64515 15.4852L8.67006 15.51C8.71871 15.5586 8.83379 15.639 9.00711 15.7164C9.17419 15.7911 9.36005 15.8471 9.52742 15.8695C9.7003 15.8927 9.80249 15.8734 9.84538 15.8547C9.7328 15.4137 9.67452 14.9615 9.67193 14.5073L9.67186 14.4952L9.67201 14.4952C9.70498 12.7114 10.4448 11.345 11.5533 10.4328C12.651 9.52949 14.0852 9.09034 15.5 9.09034C16.9149 9.09034 18.3491 9.52949 19.4468 10.4328C20.5553 11.345 21.2951 12.7114 21.3281 14.4952L21.3283 14.5047H21.3282C21.3279 15.3242 21.1325 16.132 20.7579 16.8693C20.3833 17.6064 19.8395 18.2534 19.1684 18.7648L29.0129 13.6366Z" stroke="#FE2D02"/>
<path d="M20.8588 20.7358L20.8767 20.7545L20.8963 20.7713C21.2092 21.0376 21.3179 21.3281 21.3274 21.6634C21.3378 22.0305 21.2285 22.4534 21.0627 22.9515C21.0239 23.0682 20.9813 23.1906 20.9375 23.3165C20.8061 23.694 20.6636 24.1037 20.5767 24.4903C20.4603 25.0078 20.4157 25.5869 20.6577 26.1336C20.625 26.169 20.5521 26.2298 20.4088 26.3045C20.0578 26.4875 19.494 26.6485 18.8295 26.7789C17.5142 27.0371 15.9941 27.1406 15.5 27.1406V27.1405L15.4912 27.1407C6.30359 27.3029 -0.43303 18.2375 2.73456 10.3346C2.77517 10.3423 2.82846 10.3565 2.89946 10.3793C2.93756 10.3916 2.97483 10.4043 3.0161 10.4183C3.02709 10.4221 3.03837 10.4259 3.05001 10.4298C3.10239 10.4476 3.16176 10.4675 3.22128 10.4849L3.25019 10.4933L3.2799 10.4982C3.65723 10.5607 4.05933 10.4958 4.42991 10.4001C4.79398 10.3061 5.18102 10.1672 5.54938 10.0349C5.56101 10.0308 5.57262 10.0266 5.58422 10.0224L5.60512 10.0149L5.62527 10.0056C7.12233 9.31295 8.14073 9.466 8.62321 9.8937C9.08447 10.3026 9.30838 11.2017 8.66105 12.6204L8.65235 12.6394L8.64528 12.6592C8.51258 13.0293 8.39146 13.3975 8.31212 13.7408C8.23397 14.0789 8.18735 14.4292 8.23038 14.7528C8.27543 15.0915 8.42309 15.4208 8.7403 15.6513C9.04103 15.8698 9.42951 15.9515 9.86188 15.9515H9.87052L9.87449 15.9514C10.1576 16.9372 10.7266 17.826 11.5136 18.5206C12.2994 19.2141 13.2719 19.687 14.3214 19.8911C14.3221 19.8942 14.3229 19.8976 14.3237 19.9013C14.3307 19.9343 14.3364 19.9762 14.3427 20.0372C14.344 20.0506 14.3455 20.0659 14.347 20.0826C14.3571 20.1897 14.3729 20.359 14.4188 20.5125C14.4779 20.7105 14.5974 20.9307 14.8413 21.0842C15.3601 21.4477 15.991 21.4193 16.5388 21.3082C16.9966 21.2154 17.4974 21.0415 17.9685 20.878C18.0719 20.8421 18.1739 20.8067 18.2736 20.7728C18.8561 20.5746 19.3814 20.4189 19.8403 20.3946C20.2799 20.3713 20.6053 20.4703 20.8588 20.7358Z" stroke="#FE2D02"/>
<mask id="path-3-inside-1_1_2" fill="white">
<path d="M9.78917 4.43608C9.24183 3.86967 8.26823 5.34234 7.89042 5.56891C7.84503 5.611 7.809 5.66112 7.78439 5.71635C7.75983 5.77154 7.74714 5.83077 7.74714 5.89062C7.74714 5.95044 7.75983 6.00966 7.78439 6.06485C7.809 6.12009 7.84503 6.1702 7.89042 6.21234C8.43776 6.77875 9.41136 5.30609 9.78917 5.07953C9.8346 5.03739 9.87064 4.98727 9.8952 4.93204C9.91981 4.87685 9.93245 4.81762 9.93245 4.75781C9.93245 4.69795 9.91981 4.63873 9.8952 4.58354C9.87064 4.52831 9.8346 4.4782 9.78917 4.43608Z"/>
</mask>
<path d="M9.78917 4.43608C9.24183 3.86967 8.26823 5.34234 7.89042 5.56891C7.84503 5.611 7.809 5.66112 7.78439 5.71635C7.75983 5.77154 7.74714 5.83077 7.74714 5.89062C7.74714 5.95044 7.75983 6.00966 7.78439 6.06485C7.809 6.12009 7.84503 6.1702 7.89042 6.21234C8.43776 6.77875 9.41136 5.30609 9.78917 5.07953C9.8346 5.03739 9.87064 4.98727 9.8952 4.93204C9.91981 4.87685 9.93245 4.81762 9.93245 4.75781C9.93245 4.69795 9.91981 4.63873 9.8952 4.58354C9.87064 4.52831 9.8346 4.4782 9.78917 4.43608Z" fill="url(#paint0_linear_1_2)"/>
<path d="M9.78917 4.43608L9.07007 5.13098L9.08915 5.15073L9.1093 5.1694L9.78917 4.43608ZM7.89042 5.56891L7.37613 4.71129L7.28678 4.76487L7.21039 4.83572L7.89042 5.56891ZM7.78439 5.71635L6.87093 5.30943L6.87075 5.30982L7.78439 5.71635ZM7.78439 6.06485L6.87075 6.47139L6.87093 6.47178L7.78439 6.06485ZM7.89042 6.21234L8.60952 5.51744L8.5907 5.49796L8.57084 5.47952L7.89042 6.21234ZM9.78917 5.07953L10.3035 5.93715L10.3928 5.88357L10.4692 5.81271L9.78917 5.07953ZM9.8952 4.93204L8.98186 4.52483L8.98144 4.52578L9.8952 4.93204ZM9.8952 4.58354L8.98147 4.98985L8.98186 4.99074L9.8952 4.58354ZM10.5083 3.74117C10.3043 3.53014 10.0404 3.37892 9.7328 3.32686C9.43967 3.27725 9.17812 3.32947 8.97954 3.40011C8.61002 3.53156 8.30372 3.78361 8.10436 3.96445C7.89014 4.15877 7.68433 4.38069 7.54438 4.52807C7.46764 4.60888 7.41193 4.66631 7.36816 4.70802C7.31374 4.75988 7.3234 4.74291 7.37613 4.71129L8.40471 6.42652C8.55189 6.33826 8.67462 6.22571 8.7479 6.15588C8.83183 6.0759 8.91844 5.98553 8.99466 5.90527C9.16062 5.73051 9.30326 5.57717 9.44809 5.4458C9.60777 5.30095 9.6711 5.27688 9.64988 5.28443C9.62545 5.29312 9.53271 5.32144 9.39906 5.29882C9.25093 5.27375 9.13716 5.20041 9.07007 5.13098L10.5083 3.74117ZM7.21039 4.83572C7.06835 4.96746 6.95182 5.12783 6.87093 5.30943L8.69785 6.12328C8.66617 6.1944 8.62171 6.25454 8.57045 6.30209L7.21039 4.83572ZM6.87075 5.30982C6.79002 5.49126 6.74714 5.68884 6.74714 5.89062H8.74714C8.74714 5.97269 8.72965 6.05182 8.69802 6.12289L6.87075 5.30982ZM6.74714 5.89062C6.74714 6.09242 6.79004 6.28999 6.87075 6.47139L8.69802 5.65832C8.72962 5.72933 8.74714 5.80846 8.74714 5.89062H6.74714ZM6.87093 6.47178C6.95184 6.6534 7.0683 6.8136 7.21 6.94516L8.57084 5.47952C8.62176 5.5268 8.66615 5.58677 8.69785 5.65793L6.87093 6.47178ZM7.17132 6.90725C7.37524 7.11828 7.63917 7.26949 7.94678 7.32156C8.23991 7.37117 8.50146 7.31896 8.70004 7.24832C9.06956 7.11686 9.37587 6.86482 9.57523 6.68398C9.78945 6.48966 9.99525 6.26775 10.1352 6.12037C10.2119 6.03956 10.2677 5.98213 10.3114 5.94042C10.3658 5.88856 10.3562 5.90553 10.3035 5.93715L9.27488 4.22191C9.1277 4.31017 9.00497 4.42272 8.93169 4.49255C8.84776 4.57253 8.76115 4.6629 8.68493 4.74316C8.51898 4.91792 8.37633 5.07125 8.23151 5.20262C8.07183 5.34747 8.00849 5.37154 8.02972 5.36399C8.05415 5.3553 8.14689 5.32698 8.28053 5.3496C8.42866 5.37467 8.54243 5.44801 8.60952 5.51744L7.17132 6.90725ZM10.4692 5.81271C10.6112 5.68101 10.728 5.52048 10.809 5.3383L8.98144 4.52578C9.01332 4.45407 9.05801 4.39377 9.10914 4.34635L10.4692 5.81271ZM10.8085 5.33924C10.8898 5.15695 10.9324 4.95908 10.9324 4.75781H8.93245C8.93245 4.67617 8.9498 4.59674 8.98186 4.52483L10.8085 5.33924ZM10.9324 4.75781C10.9324 4.55655 10.8898 4.35868 10.8085 4.17634L8.98186 4.99074C8.94978 4.91879 8.93245 4.83936 8.93245 4.75781H10.9324ZM10.8089 4.17723C10.7279 3.9951 10.6112 3.83452 10.469 3.70275L9.1093 5.1694C9.05803 5.12188 9.01334 5.06153 8.98147 4.98985L10.8089 4.17723Z" fill="#FE2D02" mask="url(#path-3-inside-1_1_2)"/>
<mask id="path-5-inside-2_1_2" fill="white">
<path d="M14.2649 6.3935L12.3274 5.48725C12.2145 5.44325 12.088 5.44085 11.9733 5.48055C11.8585 5.5202 11.7641 5.59899 11.7089 5.70108C11.6537 5.80322 11.6419 5.92108 11.6758 6.031C11.7096 6.14093 11.7866 6.23482 11.8915 6.29382L13.829 7.20007C13.9419 7.24406 14.0684 7.24647 14.1831 7.20677C14.2978 7.16712 14.3922 7.08832 14.4474 6.98624C14.5026 6.8841 14.5144 6.76624 14.4806 6.65632C14.4467 6.54639 14.3697 6.4525 14.2649 6.3935Z"/>
</mask>
<path d="M14.2649 6.3935L12.3274 5.48725C12.2145 5.44325 12.088 5.44085 11.9733 5.48055C11.8585 5.5202 11.7641 5.59899 11.7089 5.70108C11.6537 5.80322 11.6419 5.92108 11.6758 6.031C11.7096 6.14093 11.7866 6.23482 11.8915 6.29382L13.829 7.20007C13.9419 7.24406 14.0684 7.24647 14.1831 7.20677C14.2978 7.16712 14.3922 7.08832 14.4474 6.98624C14.5026 6.8841 14.5144 6.76624 14.4806 6.65632C14.4467 6.54639 14.3697 6.4525 14.2649 6.3935Z" fill="url(#paint1_linear_1_2)"/>
<path d="M14.2649 6.3935L14.7556 5.52215L14.7227 5.50366L14.6886 5.48769L14.2649 6.3935ZM12.3274 5.48725L12.7511 4.58144L12.7212 4.56747L12.6905 4.5555L12.3274 5.48725ZM11.9733 5.48055L12.2998 6.42572L12.3003 6.42556L11.9733 5.48055ZM11.7089 5.70108L12.5886 6.17667L12.5887 6.17651L11.7089 5.70108ZM11.8915 6.29382L11.401 7.16526L11.4337 7.1837L11.4678 7.19963L11.8915 6.29382ZM13.829 7.20007L13.4053 8.10588L13.4351 8.11985L13.4659 8.13182L13.829 7.20007ZM14.1831 7.20677L13.8564 6.26164L13.856 6.26176L14.1831 7.20677ZM14.4474 6.98624L13.5677 6.51065L13.5677 6.51081L14.4474 6.98624ZM14.6886 5.48769L12.7511 4.58144L11.9037 6.39306L13.8412 7.29931L14.6886 5.48769ZM12.6905 4.5555C12.3561 4.42518 11.9849 4.41833 11.6462 4.53554L12.3003 6.42556C12.191 6.46337 12.0729 6.46133 11.9643 6.41901L12.6905 4.5555ZM11.6467 4.53538C11.307 4.65274 11.0092 4.8925 10.8292 5.22565L12.5887 6.17651C12.519 6.30549 12.41 6.38765 12.2998 6.42572L11.6467 4.53538ZM10.8293 5.22549C10.6476 5.56147 10.6065 5.95659 10.7201 6.32536L12.6315 5.73665C12.6773 5.88556 12.6598 6.04496 12.5886 6.17667L10.8293 5.22549ZM10.7201 6.32536C10.833 6.69197 11.0839 6.9868 11.401 7.16526L12.3819 5.42237C12.4894 5.48283 12.5863 5.58989 12.6315 5.73665L10.7201 6.32536ZM11.4678 7.19963L13.4053 8.10588L14.2526 6.29426L12.3151 5.38801L11.4678 7.19963ZM13.4659 8.13182C13.8003 8.26214 14.1714 8.26899 14.5101 8.15178L13.856 6.26176C13.9653 6.22394 14.0834 6.22599 14.192 6.26831L13.4659 8.13182ZM14.5098 8.1519C14.8492 8.03459 15.1471 7.79494 15.3272 7.46167L13.5677 6.51081C13.6374 6.38171 13.7464 6.29966 13.8564 6.26164L14.5098 8.1519ZM15.3271 7.46183C15.5087 7.12584 15.5499 6.73072 15.4363 6.36196L13.5249 6.95067C13.479 6.80176 13.4965 6.64236 13.5677 6.51065L15.3271 7.46183ZM15.4363 6.36196C15.3233 5.99518 15.0723 5.70049 14.7556 5.52215L13.7742 7.26485C13.6671 7.20451 13.5701 7.0976 13.5249 6.95067L15.4363 6.36196Z" fill="#FE2D02" mask="url(#path-5-inside-2_1_2)"/>
<path d="M17.9148 7.36289C17.9148 7.36288 17.9146 7.36228 17.9143 7.3611L17.9148 7.36289ZM17.9882 7.16164C17.9887 7.16183 17.9859 7.16406 17.9784 7.16778C17.984 7.16332 17.9878 7.16146 17.9882 7.16164Z" fill="url(#paint2_linear_1_2)" stroke="#FE2D02"/>
<mask id="path-8-inside-3_1_2" fill="white">
<path d="M17.9219 4.07812C17.9219 3.95795 17.8708 3.84269 17.78 3.75772C17.6892 3.67274 17.566 3.625 17.4375 3.625H15.5C15.3715 3.625 15.2483 3.67274 15.1575 3.75772C15.0667 3.84269 15.0156 3.95795 15.0156 4.07812C15.0156 4.1983 15.0667 4.31356 15.1575 4.39853C15.2483 4.48351 15.3715 4.53125 15.5 4.53125H17.4375C17.566 4.53125 17.6892 4.48351 17.78 4.39853C17.8708 4.31356 17.9219 4.1983 17.9219 4.07812Z"/>
</mask>
<path d="M17.9219 4.07812C17.9219 3.95795 17.8708 3.84269 17.78 3.75772C17.6892 3.67274 17.566 3.625 17.4375 3.625H15.5C15.3715 3.625 15.2483 3.67274 15.1575 3.75772C15.0667 3.84269 15.0156 3.95795 15.0156 4.07812C15.0156 4.1983 15.0667 4.31356 15.1575 4.39853C15.2483 4.48351 15.3715 4.53125 15.5 4.53125H17.4375C17.566 4.53125 17.6892 4.48351 17.78 4.39853C17.8708 4.31356 17.9219 4.1983 17.9219 4.07812Z" fill="url(#paint3_linear_1_2)"/>
<path d="M17.78 3.75772L18.4632 3.02752L18.4632 3.0275L17.78 3.75772ZM15.1575 3.75772L14.4743 3.0275L14.4743 3.02752L15.1575 3.75772ZM15.1575 4.39853L14.4743 5.12873L14.4743 5.12875L15.1575 4.39853ZM17.78 4.39853L18.4632 5.12875L18.4632 5.12873L17.78 4.39853ZM18.9219 4.07812C18.9219 3.67029 18.748 3.29399 18.4632 3.02752L17.0968 4.48791C16.9936 4.3914 16.9219 4.2456 16.9219 4.07812H18.9219ZM18.4632 3.0275C18.1805 2.76295 17.8104 2.625 17.4375 2.625V4.625C17.3215 4.625 17.1979 4.58253 17.0968 4.48793L18.4632 3.0275ZM17.4375 2.625H15.5V4.625H17.4375V2.625ZM15.5 2.625C15.1271 2.625 14.757 2.76295 14.4743 3.0275L15.8407 4.48793C15.7396 4.58253 15.616 4.625 15.5 4.625V2.625ZM14.4743 3.02752C14.1895 3.29399 14.0156 3.67029 14.0156 4.07812H16.0156C16.0156 4.2456 15.9439 4.3914 15.8407 4.48791L14.4743 3.02752ZM14.0156 4.07812C14.0156 4.48596 14.1895 4.86226 14.4743 5.12873L15.8407 3.66834C15.9439 3.76485 16.0156 3.91065 16.0156 4.07812H14.0156ZM14.4743 5.12875C14.757 5.3933 15.1271 5.53125 15.5 5.53125V3.53125C15.616 3.53125 15.7396 3.57372 15.8407 3.66832L14.4743 5.12875ZM15.5 5.53125H17.4375V3.53125H15.5V5.53125ZM17.4375 5.53125C17.8104 5.53125 18.1805 5.3933 18.4632 5.12875L17.0968 3.66832C17.1979 3.57372 17.3215 3.53125 17.4375 3.53125V5.53125ZM18.4632 5.12873C18.748 4.86226 18.9219 4.48596 18.9219 4.07812H16.9219C16.9219 3.91065 16.9936 3.76485 17.0968 3.66834L18.4632 5.12873Z" fill="#FE2D02" mask="url(#path-8-inside-3_1_2)"/>
<path d="M22.7586 10.9879C22.7586 10.9879 22.7584 10.9873 22.7581 10.9861L22.7586 10.9879ZM22.832 10.7866C22.8324 10.7868 22.8296 10.7891 22.8222 10.7928C22.8278 10.7883 22.8315 10.7865 22.832 10.7866Z" fill="url(#paint4_linear_1_2)" stroke="#FE2D02"/>
<path d="M26.6336 14.0179C26.6337 14.0179 26.6337 14.0179 26.6337 14.0178C26.6337 14.0178 26.6337 14.0177 26.6338 14.0177L26.6336 14.0179Z" stroke="#FE2D02"/>
<mask id="path-12-inside-4_1_2" fill="white">
<path d="M24.0782 17.9935C24.6498 17.4951 23.3468 16.7837 23.1095 16.4439C23.0645 16.4014 23.0109 16.3677 22.9519 16.3447C22.8928 16.3217 22.8295 16.3098 22.7656 16.3098C22.7016 16.3098 22.6383 16.3217 22.5793 16.3447C22.5203 16.3677 22.4667 16.4014 22.4217 16.4439C21.8501 16.9423 23.1531 17.6537 23.3904 17.9935C23.4355 18.0361 23.489 18.0698 23.548 18.0927C23.6071 18.1158 23.6704 18.1276 23.7343 18.1276C23.7983 18.1276 23.8616 18.1158 23.9206 18.0927C23.9797 18.0698 24.0332 18.0361 24.0782 17.9935Z"/>
</mask>
<path d="M24.0782 17.9935C24.6498 17.4951 23.3468 16.7837 23.1095 16.4439C23.0645 16.4014 23.0109 16.3677 22.9519 16.3447C22.8928 16.3217 22.8295 16.3098 22.7656 16.3098C22.7016 16.3098 22.6383 16.3217 22.5793 16.3447C22.5203 16.3677 22.4667 16.4014 22.4217 16.4439C21.8501 16.9423 23.1531 17.6537 23.3904 17.9935C23.4355 18.0361 23.489 18.0698 23.548 18.0927C23.6071 18.1158 23.6704 18.1276 23.7343 18.1276C23.7983 18.1276 23.8616 18.1158 23.9206 18.0927C23.9797 18.0698 24.0332 18.0361 24.0782 17.9935Z" fill="url(#paint5_linear_1_2)"/>
<path d="M24.0782 17.9935L23.421 17.2399L23.406 17.2529L23.3916 17.2666L24.0782 17.9935ZM23.1095 16.4439L23.9293 15.8713L23.8705 15.787L23.7958 15.7165L23.1095 16.4439ZM22.9519 16.3447L23.3151 15.413L23.3145 15.4127L22.9519 16.3447ZM22.5793 16.3447L22.2167 15.4127L22.2158 15.4131L22.5793 16.3447ZM22.4217 16.4439L23.0789 17.1975L23.0935 17.1848L23.1076 17.1716L22.4217 16.4439ZM23.3904 17.9935L22.5706 18.5661L22.6294 18.6504L22.7041 18.7209L23.3904 17.9935ZM23.548 18.0927L23.9113 17.161L23.9109 17.1609L23.548 18.0927ZM23.9206 18.0927L23.558 17.1608L23.5574 17.161L23.9206 18.0927ZM24.7355 18.7472C24.9249 18.582 25.0945 18.3552 25.1748 18.0624C25.2549 17.7704 25.2226 17.4992 25.1538 17.2841C25.0309 16.9002 24.7646 16.6117 24.6026 16.4505C24.4217 16.2704 24.2124 16.1002 24.0819 15.9913C23.8936 15.8343 23.8942 15.821 23.9293 15.8713L22.2896 17.0164C22.3828 17.1498 22.4937 17.257 22.5635 17.3216C22.6418 17.3939 22.7279 17.4664 22.8008 17.5272C22.9635 17.6629 23.0887 17.7655 23.1918 17.868C23.3137 17.9894 23.2809 17.9934 23.249 17.8938C23.2256 17.8208 23.2032 17.6896 23.2461 17.5332C23.2892 17.376 23.3744 17.2805 23.421 17.2399L24.7355 18.7472ZM23.7958 15.7165C23.6549 15.5836 23.491 15.4815 23.3151 15.413L22.5886 17.2764C22.5309 17.2538 22.4741 17.2192 22.4232 17.1712L23.7958 15.7165ZM23.3145 15.4127C23.1392 15.3445 22.9529 15.3098 22.7656 15.3098V17.3098C22.7061 17.3098 22.6464 17.2989 22.5893 17.2766L23.3145 15.4127ZM22.7656 15.3098C22.5783 15.3098 22.392 15.3445 22.2167 15.4127L22.9419 17.2766C22.8847 17.2989 22.825 17.3098 22.7656 17.3098V15.3098ZM22.2158 15.4131C22.0401 15.4816 21.8764 15.5836 21.7358 15.7162L23.1076 17.1716C23.057 17.2192 23.0005 17.2537 22.9428 17.2763L22.2158 15.4131ZM21.7644 15.6902C21.575 15.8554 21.4055 16.0822 21.3251 16.375C21.245 16.667 21.2773 16.9382 21.3461 17.1534C21.469 17.5372 21.7353 17.8257 21.8973 17.9869C22.0782 18.167 22.2875 18.3372 22.418 18.4461C22.6063 18.6031 22.6057 18.6164 22.5706 18.5661L24.2103 17.421C24.1172 17.2876 24.0062 17.1804 23.9364 17.1158C23.8581 17.0435 23.772 16.971 23.6991 16.9102C23.5364 16.7745 23.4112 16.672 23.3082 16.5694C23.1862 16.448 23.219 16.444 23.2509 16.5436C23.2743 16.6166 23.2967 16.7478 23.2538 16.9042C23.2107 17.0614 23.1255 17.157 23.0789 17.1975L21.7644 15.6902ZM22.7041 18.7209C22.8449 18.8537 23.009 18.956 23.1852 19.0246L23.9109 17.1609C23.9691 17.1836 24.026 17.2184 24.0767 17.2662L22.7041 18.7209ZM23.1848 19.0244C23.3609 19.0931 23.5475 19.1276 23.7343 19.1276V17.1276C23.7933 17.1276 23.8533 17.1384 23.9113 17.161L23.1848 19.0244ZM23.7343 19.1276C23.9212 19.1276 24.1077 19.0931 24.2838 19.0244L23.5574 17.161C23.6154 17.1384 23.6754 17.1276 23.7343 17.1276V19.1276ZM24.2832 19.0247C24.4596 18.9561 24.6239 18.8537 24.7649 18.7205L23.3916 17.2666C23.4426 17.2184 23.4997 17.1835 23.558 17.1608L24.2832 19.0247Z" fill="#FE2D02" mask="url(#path-12-inside-4_1_2)"/>
<mask id="path-14-inside-5_1_2" fill="white">
<path d="M24.2187 21.2969C23.5212 21.2969 23.778 22.2756 23.7344 22.6562C23.7344 22.7764 23.7854 22.8917 23.8762 22.9767C23.9671 23.0616 24.0903 23.1094 24.2187 23.1094C24.9163 23.1094 24.6595 22.1306 24.7031 21.75C24.7031 21.6298 24.6521 21.5146 24.5613 21.4296C24.4704 21.3446 24.3473 21.2969 24.2187 21.2969Z"/>
</mask>
<path d="M24.2187 21.2969C23.5212 21.2969 23.778 22.2756 23.7344 22.6562C23.7344 22.7764 23.7854 22.8917 23.8762 22.9767C23.9671 23.0616 24.0903 23.1094 24.2187 23.1094C24.9163 23.1094 24.6595 22.1306 24.7031 21.75C24.7031 21.6298 24.6521 21.5146 24.5613 21.4296C24.4704 21.3446 24.3473 21.2969 24.2187 21.2969Z" fill="url(#paint6_linear_1_2)"/>
<path d="M23.7344 22.6562L22.7409 22.5425L22.7344 22.5992V22.6562H23.7344ZM23.8762 22.9767L23.1931 23.7069L23.1933 23.7071L23.8762 22.9767ZM24.7031 21.75L25.6966 21.8638L25.7031 21.8071V21.75H24.7031ZM24.5613 21.4296L25.2445 20.6993L25.2443 20.6991L24.5613 21.4296ZM24.2187 20.2969C23.7757 20.2969 23.349 20.471 23.0605 20.8484C22.8176 21.1661 22.7569 21.5228 22.7361 21.7369C22.7138 21.9652 22.7248 22.1918 22.7315 22.3317C22.7409 22.5241 22.74 22.5501 22.7409 22.5425L24.7279 22.77C24.7412 22.6534 24.7406 22.542 24.7388 22.4651C24.737 22.3858 24.7323 22.2987 24.7292 22.2349C24.7219 22.0842 24.7204 21.9947 24.7266 21.9307C24.7342 21.8526 24.7429 21.9408 24.6494 22.0631C24.5939 22.1356 24.5148 22.2034 24.4172 22.2482C24.3237 22.2912 24.249 22.2969 24.2187 22.2969V20.2969ZM22.7344 22.6562C22.7344 23.064 22.9082 23.4404 23.1931 23.7069L24.5594 22.2464C24.6627 22.343 24.7344 22.4888 24.7344 22.6562H22.7344ZM23.1933 23.7071C23.4758 23.9713 23.8456 24.1094 24.2187 24.1094V22.1094C24.335 22.1094 24.4584 22.152 24.5592 22.2462L23.1933 23.7071ZM24.2187 24.1094C24.6618 24.1094 25.0885 23.9352 25.377 23.5579C25.6199 23.2401 25.6806 22.8835 25.7014 22.6693C25.7237 22.441 25.7127 22.2144 25.706 22.0746C25.6966 21.8822 25.6975 21.8562 25.6966 21.8638L23.7096 21.6362C23.6963 21.7529 23.6969 21.8643 23.6987 21.9412C23.7005 22.0205 23.7052 22.1076 23.7083 22.1714C23.7156 22.3221 23.7171 22.4116 23.7109 22.4755C23.7033 22.5536 23.6946 22.4654 23.7881 22.3431C23.8436 22.2706 23.9227 22.2029 24.0203 22.158C24.1138 22.115 24.1885 22.1094 24.2187 22.1094V24.1094ZM25.7031 21.75C25.7031 21.3425 25.5296 20.966 25.2445 20.6993L23.8781 22.1599C23.7747 22.0631 23.7031 21.9172 23.7031 21.75H25.7031ZM25.2443 20.6991C24.9617 20.435 24.5919 20.2969 24.2187 20.2969V22.2969C24.1026 22.2969 23.9792 22.2543 23.8783 22.16L25.2443 20.6991Z" fill="#FE2D02" mask="url(#path-14-inside-5_1_2)"/>
<mask id="path-16-inside-6_1_2" fill="white">
<path d="M26.1562 19.0312H24.2188C24.0903 19.0312 23.9671 19.079 23.8762 19.164C23.7854 19.2489 23.7344 19.3642 23.7344 19.4844C23.7344 19.6045 23.7854 19.7198 23.8762 19.8048C23.9671 19.8897 24.0903 19.9375 24.2188 19.9375H26.1562C26.2847 19.9375 26.4079 19.8897 26.4988 19.8048C26.5896 19.7198 26.6406 19.6045 26.6406 19.4844C26.6406 19.3642 26.5896 19.2489 26.4988 19.164C26.4079 19.079 26.2847 19.0312 26.1562 19.0312Z"/>
</mask>
<path d="M26.1562 19.0312H24.2188C24.0903 19.0312 23.9671 19.079 23.8762 19.164C23.7854 19.2489 23.7344 19.3642 23.7344 19.4844C23.7344 19.6045 23.7854 19.7198 23.8762 19.8048C23.9671 19.8897 24.0903 19.9375 24.2188 19.9375H26.1562C26.2847 19.9375 26.4079 19.8897 26.4988 19.8048C26.5896 19.7198 26.6406 19.6045 26.6406 19.4844C26.6406 19.3642 26.5896 19.2489 26.4988 19.164C26.4079 19.079 26.2847 19.0312 26.1562 19.0312Z" fill="url(#paint7_linear_1_2)"/>
<path d="M26.1562 18.0312H24.2188V20.0312H26.1562V18.0312ZM24.2188 18.0312C23.8458 18.0312 23.4758 18.1693 23.1931 18.4337L24.5594 19.8942C24.4584 19.9887 24.3348 20.0312 24.2188 20.0312V18.0312ZM23.1931 18.4337C22.9082 18.7002 22.7344 19.0766 22.7344 19.4844H24.7344C24.7344 19.6518 24.6627 19.7976 24.5594 19.8942L23.1931 18.4337ZM22.7344 19.4844C22.7344 19.8921 22.9082 20.2685 23.1931 20.5351L24.5594 19.0745C24.6627 19.1711 24.7344 19.3169 24.7344 19.4844H22.7344ZM23.1931 20.5351C23.4758 20.7995 23.8458 20.9375 24.2188 20.9375V18.9375C24.3348 18.9375 24.4584 18.98 24.5594 19.0745L23.1931 20.5351ZM24.2188 20.9375H26.1562V18.9375H24.2188V20.9375ZM26.1562 20.9375C26.5292 20.9375 26.8992 20.7995 27.1819 20.5351L25.8156 19.0745C25.9166 18.98 26.0402 18.9375 26.1562 18.9375V20.9375ZM27.1819 20.5351C27.4668 20.2685 27.6406 19.8921 27.6406 19.4844H25.6406C25.6406 19.3169 25.7123 19.1711 25.8156 19.0745L27.1819 20.5351ZM27.6406 19.4844C27.6406 19.0766 27.4668 18.7002 27.1819 18.4337L25.8156 19.8942C25.7123 19.7976 25.6406 19.6518 25.6406 19.4844H27.6406ZM27.1819 18.4337C26.8992 18.1693 26.5292 18.0312 26.1562 18.0312V20.0312C26.0402 20.0312 25.9166 19.9887 25.8156 19.8942L27.1819 18.4337Z" fill="#FE2D02" mask="url(#path-16-inside-6_1_2)"/>
<mask id="path-18-inside-7_1_2" fill="white">
<path d="M10.1719 8.15625C10.0434 8.15625 9.92019 8.20401 9.82937 8.28897C9.73855 8.37393 9.6875 8.48921 9.6875 8.60938V10.4219C9.6875 10.542 9.73855 10.6573 9.82937 10.7423C9.92019 10.8272 10.0434 10.875 10.1719 10.875C10.3003 10.875 10.4236 10.8272 10.5144 10.7423C10.6052 10.6573 10.6562 10.542 10.6562 10.4219V8.60938C10.6562 8.48921 10.6052 8.37393 10.5144 8.28897C10.4236 8.20401 10.3003 8.15625 10.1719 8.15625Z"/>
</mask>
<path d="M10.1719 8.15625C10.0434 8.15625 9.92019 8.20401 9.82937 8.28897C9.73855 8.37393 9.6875 8.48921 9.6875 8.60938V10.4219C9.6875 10.542 9.73855 10.6573 9.82937 10.7423C9.92019 10.8272 10.0434 10.875 10.1719 10.875C10.3003 10.875 10.4236 10.8272 10.5144 10.7423C10.6052 10.6573 10.6562 10.542 10.6562 10.4219V8.60938C10.6562 8.48921 10.6052 8.37393 10.5144 8.28897C10.4236 8.20401 10.3003 8.15625 10.1719 8.15625Z" fill="url(#paint8_linear_1_2)"/>
<path d="M10.1719 7.15625C9.79888 7.15625 9.42888 7.29428 9.14622 7.5587L10.5125 9.01924C10.4115 9.11374 10.288 9.15625 10.1719 9.15625V7.15625ZM9.14622 7.5587C8.8613 7.82523 8.6875 8.20161 8.6875 8.60938H10.6875C10.6875 8.7768 10.6158 8.92263 10.5125 9.01924L9.14622 7.5587ZM8.6875 8.60938V10.4219H10.6875V8.60938H8.6875ZM8.6875 10.4219C8.6875 10.8296 8.8613 11.206 9.14622 11.4726L10.5125 10.012C10.6158 10.1086 10.6875 10.2544 10.6875 10.4219H8.6875ZM9.14622 11.4726C9.42888 11.737 9.79888 11.875 10.1719 11.875V9.875C10.288 9.875 10.4115 9.91751 10.5125 10.012L9.14622 11.4726ZM10.1719 11.875C10.5449 11.875 10.9149 11.737 11.1975 11.4726L9.83122 10.012C9.93224 9.91751 10.0558 9.875 10.1719 9.875V11.875ZM11.1975 11.4726C11.4824 11.206 11.6562 10.8296 11.6562 10.4219H9.65625C9.65625 10.2544 9.72795 10.1086 9.83122 10.012L11.1975 11.4726ZM11.6562 10.4219V8.60938H9.65625V10.4219H11.6562ZM11.6562 8.60938C11.6562 8.20161 11.4824 7.82523 11.1975 7.5587L9.83122 9.01924C9.72795 8.92263 9.65625 8.7768 9.65625 8.60938H11.6562ZM11.1975 7.5587C10.9149 7.29428 10.5449 7.15625 10.1719 7.15625V9.15625C10.0558 9.15625 9.93224 9.11374 9.83122 9.01924L11.1975 7.5587Z" fill="#FE2D02" mask="url(#path-18-inside-7_1_2)"/>
<defs>
<linearGradient id="paint0_linear_1_2" x1="7.74995" y1="5.32422" x2="9.92964" y2="5.32422" gradientUnits="userSpaceOnUse">
<stop stop-color="#FDFBF7"/>
<stop offset="0.35" stop-color="#F5F0DF"/>
<stop offset="1" stop-color="#E3D7A9"/>
</linearGradient>
<linearGradient id="paint1_linear_1_2" x1="79.8822" y1="30.4246" x2="96.9099" y2="30.4246" gradientUnits="userSpaceOnUse">
<stop stop-color="#FDFBF7"/>
<stop offset="0.35" stop-color="#F5F0DF"/>
<stop offset="1" stop-color="#E3D7A9"/>
</linearGradient>
<linearGradient id="paint2_linear_1_2" x1="82.555" y1="33.1374" x2="90.3714" y2="33.1374" gradientUnits="userSpaceOnUse">
<stop stop-color="#FDFBF7"/>
<stop offset="0.35" stop-color="#F5F0DF"/>
<stop offset="1" stop-color="#E3D7A9"/>
</linearGradient>
<linearGradient id="paint3_linear_1_2" x1="105.109" y1="11.7812" x2="122.547" y2="11.7812" gradientUnits="userSpaceOnUse">
<stop stop-color="#FDFBF7"/>
<stop offset="0.35" stop-color="#F5F0DF"/>
<stop offset="1" stop-color="#E3D7A9"/>
</linearGradient>
<linearGradient id="paint4_linear_1_2" x1="106.842" y1="51.2951" x2="114.659" y2="51.2951" gradientUnits="userSpaceOnUse">
<stop stop-color="#FDFBF7"/>
<stop offset="0.35" stop-color="#F5F0DF"/>
<stop offset="1" stop-color="#E3D7A9"/>
</linearGradient>
<linearGradient id="paint5_linear_1_2" x1="111.674" y1="85.3846" x2="119.488" y2="85.3846" gradientUnits="userSpaceOnUse">
<stop stop-color="#FDFBF7"/>
<stop offset="0.35" stop-color="#F5F0DF"/>
<stop offset="1" stop-color="#E3D7A9"/>
</linearGradient>
<linearGradient id="paint6_linear_1_2" x1="72.3096" y1="110.109" x2="74.3333" y2="110.109" gradientUnits="userSpaceOnUse">
<stop stop-color="#FDFBF7"/>
<stop offset="0.35" stop-color="#F5F0DF"/>
<stop offset="1" stop-color="#E3D7A9"/>
</linearGradient>
<linearGradient id="paint7_linear_1_2" x1="166.141" y1="58" x2="183.491" y2="58" gradientUnits="userSpaceOnUse">
<stop stop-color="#FDFBF7"/>
<stop offset="0.35" stop-color="#F5F0DF"/>
<stop offset="1" stop-color="#E3D7A9"/>
</linearGradient>
<linearGradient id="paint8_linear_1_2" x1="29.0625" y1="65.25" x2="31" y2="65.25" gradientUnits="userSpaceOnUse">
<stop stop-color="#FDFBF7"/>
<stop offset="0.35" stop-color="#F5F0DF"/>
<stop offset="1" stop-color="#E3D7A9"/>
</linearGradient>
</defs>
</svg>
