<?xml version="1.0" encoding="UTF-8"?>
<svg xmlns="http://www.w3.org/2000/svg" xmlns:xlink="http://www.w3.org/1999/xlink" width="147px" height="147px" viewBox="0 0 75 75" version="1.1">
<g id="surface1">
<rect x="0" y="0" width="75" height="75" style="fill:rgb(100%,100%,100%);fill-opacity:1;stroke:none;"/>
<path style=" stroke:none;fill-rule:nonzero;fill:rgb(99.215686%,17.647059%,0.392157%);fill-opacity:1;" d="M 25.691406 39.527344 C 24.894531 39.527344 24.222656 39.257812 23.683594 38.71875 C 23.144531 38.179688 22.875 37.507812 22.875 36.699219 C 22.875 35.90625 23.144531 35.242188 23.683594 34.699219 C 24.222656 34.160156 24.894531 33.890625 25.691406 33.890625 C 26.496094 33.890625 27.183594 34.140625 27.761719 34.644531 L 27.011719 35.460938 C 26.628906 35.160156 26.1875 35.011719 25.691406 35.011719 C 25.1875 35.015625 24.777344 35.175781 24.464844 35.488281 C 24.15625 35.800781 24.003906 36.199219 24.003906 36.6875 C 24.003906 37.214844 24.160156 37.628906 24.472656 37.9375 C 24.78125 38.246094 25.191406 38.398438 25.699219 38.398438 C 26.105469 38.398438 26.417969 38.320312 26.632812 38.164062 L 26.632812 37.195312 L 25.886719 37.199219 L 25.886719 36.144531 L 27.761719 36.144531 L 27.761719 38.777344 C 27.1875 39.277344 26.5 39.527344 25.691406 39.527344 Z M 29.777344 35.765625 L 29.777344 36.183594 C 30.050781 35.90625 30.378906 35.769531 30.761719 35.769531 C 30.882812 35.769531 31 35.78125 31.109375 35.796875 L 30.945312 36.835938 C 30.824219 36.726562 30.648438 36.667969 30.421875 36.660156 C 30.164062 36.679688 29.953125 36.863281 29.777344 37.214844 L 29.777344 39.527344 L 28.726562 39.527344 L 28.726562 35.878906 Z M 33.503906 39.566406 C 32.957031 39.566406 32.5 39.382812 32.132812 39.015625 C 31.769531 38.648438 31.589844 38.195312 31.589844 37.652344 C 31.589844 37.105469 31.769531 36.648438 32.132812 36.28125 C 32.5 35.914062 32.957031 35.730469 33.503906 35.730469 C 34.046875 35.730469 34.503906 35.914062 34.871094 36.28125 C 35.238281 36.648438 35.421875 37.105469 35.421875 37.652344 C 35.421875 38.199219 35.238281 38.652344 34.871094 39.015625 C 34.503906 39.382812 34.046875 39.566406 33.503906 39.566406 Z M 33.503906 38.65625 C 33.785156 38.65625 34.015625 38.5625 34.195312 38.367188 C 34.375 38.175781 34.464844 37.9375 34.464844 37.652344 C 34.464844 37.367188 34.375 37.125 34.195312 36.9375 C 34.015625 36.742188 33.78125 36.644531 33.496094 36.644531 C 33.214844 36.644531 32.984375 36.742188 32.804688 36.9375 C 32.628906 37.125 32.539062 37.367188 32.539062 37.652344 C 32.539062 37.9375 32.628906 38.175781 32.804688 38.367188 C 32.984375 38.5625 33.214844 38.65625 33.503906 38.65625 Z M 38.402344 38.195312 L 38.402344 35.765625 L 39.453125 35.765625 L 39.453125 39.527344 L 38.402344 39.527344 L 38.402344 39.1875 C 38.148438 39.414062 37.847656 39.527344 37.5 39.527344 C 37.023438 39.527344 36.660156 39.382812 36.410156 39.09375 C 36.160156 38.800781 36.03125 38.472656 36.03125 38.097656 L 36.03125 35.765625 L 37.089844 35.765625 L 37.089844 37.832031 C 37.089844 38.082031 37.152344 38.277344 37.273438 38.414062 C 37.398438 38.554688 37.589844 38.628906 37.84375 38.636719 C 38.0625 38.621094 38.25 38.472656 38.402344 38.195312 Z M 41.398438 41.109375 L 40.351562 41.105469 L 40.351562 35.878906 L 41.398438 35.765625 L 41.398438 36.066406 C 41.683594 35.867188 41.960938 35.765625 42.230469 35.765625 C 42.804688 35.765625 43.261719 35.953125 43.601562 36.332031 C 43.941406 36.707031 44.113281 37.144531 44.113281 37.644531 C 44.113281 38.148438 43.941406 38.585938 43.601562 38.960938 C 43.261719 39.339844 42.804688 39.527344 42.230469 39.527344 C 41.851562 39.5 41.578125 39.398438 41.398438 39.21875 Z M 41.398438 37.304688 L 41.398438 37.914062 C 41.453125 38.335938 41.714844 38.585938 42.191406 38.65625 C 42.792969 38.609375 43.132812 38.296875 43.210938 37.722656 C 43.183594 37.019531 42.84375 36.652344 42.191406 36.628906 C 41.714844 36.707031 41.453125 36.929688 41.398438 37.304688 Z M 46.558594 39.566406 C 46.011719 39.566406 45.558594 39.382812 45.195312 39.015625 C 44.828125 38.648438 44.644531 38.195312 44.644531 37.652344 C 44.644531 37.105469 44.828125 36.648438 45.195312 36.28125 C 45.558594 35.914062 46.011719 35.730469 46.558594 35.730469 C 47.105469 35.730469 47.5625 35.914062 47.929688 36.28125 C 48.296875 36.648438 48.480469 37.105469 48.480469 37.652344 C 48.480469 38.199219 48.296875 38.652344 47.929688 39.015625 C 47.5625 39.382812 47.105469 39.566406 46.558594 39.566406 Z M 46.558594 38.65625 C 46.84375 38.65625 47.078125 38.5625 47.253906 38.367188 C 47.433594 38.175781 47.523438 37.9375 47.523438 37.652344 C 47.523438 37.367188 47.433594 37.125 47.253906 36.9375 C 47.078125 36.742188 46.84375 36.644531 46.554688 36.644531 C 46.273438 36.644531 46.039062 36.742188 45.859375 36.9375 C 45.683594 37.125 45.597656 37.367188 45.597656 37.652344 C 45.597656 37.9375 45.683594 38.175781 45.859375 38.367188 C 46.039062 38.5625 46.273438 38.65625 46.558594 38.65625 Z M 50.234375 37.125 L 50.234375 39.527344 L 49.175781 39.527344 L 49.175781 35.878906 L 50.234375 35.765625 L 50.234375 36.101562 C 50.46875 35.878906 50.769531 35.769531 51.136719 35.769531 C 51.609375 35.769531 51.972656 35.914062 52.222656 36.199219 C 52.5 35.914062 52.910156 35.769531 53.460938 35.769531 C 53.9375 35.769531 54.304688 35.914062 54.554688 36.199219 C 54.804688 36.488281 54.929688 36.824219 54.929688 37.199219 L 54.929688 39.527344 L 53.878906 39.527344 L 53.878906 37.457031 C 53.878906 37.210938 53.824219 37.015625 53.710938 36.875 C 53.597656 36.738281 53.414062 36.667969 53.160156 36.660156 C 52.949219 36.675781 52.769531 36.8125 52.621094 37.074219 C 52.605469 37.152344 52.597656 37.230469 52.597656 37.308594 L 52.597656 39.527344 L 51.546875 39.527344 L 51.546875 37.457031 C 51.546875 37.210938 51.492188 37.015625 51.378906 36.875 C 51.265625 36.738281 51.082031 36.667969 50.828125 36.660156 C 50.597656 36.675781 50.398438 36.828125 50.234375 37.125 Z M 56.34375 36.859375 L 55.929688 36.222656 C 56.40625 35.921875 56.960938 35.769531 57.585938 35.769531 C 58.039062 35.769531 58.394531 35.894531 58.652344 36.144531 C 58.917969 36.398438 59.050781 36.773438 59.050781 37.273438 L 59.050781 39.527344 L 58 39.527344 L 58 39.230469 C 57.691406 39.429688 57.414062 39.527344 57.167969 39.527344 C 56.671875 39.527344 56.292969 39.421875 56.042969 39.207031 C 55.792969 38.996094 55.667969 38.703125 55.667969 38.328125 C 55.667969 37.976562 55.785156 37.664062 56.023438 37.386719 C 56.257812 37.113281 56.640625 36.976562 57.167969 36.976562 C 57.414062 36.976562 57.691406 37.050781 58 37.199219 L 58 37.085938 C 57.992188 36.808594 57.789062 36.660156 57.394531 36.632812 C 56.945312 36.632812 56.59375 36.707031 56.34375 36.859375 Z M 58 38.398438 L 58 37.976562 C 57.898438 37.78125 57.660156 37.683594 57.285156 37.683594 C 56.832031 37.734375 56.59375 37.910156 56.570312 38.210938 C 56.59375 38.507812 56.832031 38.671875 57.285156 38.695312 C 57.660156 38.695312 57.898438 38.597656 58 38.398438 Z M 61.046875 37.140625 L 61.046875 39.527344 L 59.992188 39.527344 L 59.992188 35.878906 L 61.046875 35.765625 L 61.046875 36.105469 C 61.300781 35.882812 61.601562 35.769531 61.949219 35.769531 C 62.425781 35.769531 62.789062 35.914062 63.039062 36.199219 C 63.285156 36.488281 63.410156 36.824219 63.410156 37.199219 L 63.410156 39.527344 L 62.359375 39.527344 L 62.359375 37.457031 C 62.359375 37.210938 62.296875 37.015625 62.175781 36.875 C 62.046875 36.738281 61.855469 36.667969 61.601562 36.660156 C 61.386719 36.675781 61.199219 36.835938 61.046875 37.140625 Z M 65.347656 39.527344 L 64.296875 39.527344 L 64.296875 35.765625 L 65.347656 35.765625 Z M 64.257812 34.867188 C 64.257812 35.019531 64.308594 35.144531 64.40625 35.242188 C 64.507812 35.339844 64.648438 35.390625 64.824219 35.390625 C 64.996094 35.390625 65.132812 35.339844 65.238281 35.242188 C 65.335938 35.144531 65.386719 35.019531 65.386719 34.867188 C 65.386719 34.71875 65.335938 34.589844 65.238281 34.488281 C 65.132812 34.386719 64.992188 34.335938 64.8125 34.335938 C 64.644531 34.335938 64.507812 34.386719 64.40625 34.488281 C 64.308594 34.589844 64.257812 34.71875 64.257812 34.867188 Z M 66.75 36.859375 L 66.335938 36.222656 C 66.8125 35.921875 67.367188 35.769531 67.992188 35.769531 C 68.445312 35.769531 68.800781 35.894531 69.066406 36.144531 C 69.324219 36.398438 69.457031 36.773438 69.457031 37.273438 L 69.457031 39.527344 L 68.40625 39.527344 L 68.40625 39.230469 C 68.101562 39.429688 67.824219 39.527344 67.582031 39.527344 C 67.078125 39.527344 66.703125 39.421875 66.453125 39.207031 C 66.199219 38.996094 66.074219 38.703125 66.074219 38.328125 C 66.074219 37.976562 66.191406 37.664062 66.429688 37.386719 C 66.664062 37.113281 67.046875 36.976562 67.582031 36.976562 C 67.824219 36.976562 68.097656 37.050781 68.40625 37.199219 L 68.40625 37.085938 C 68.402344 36.808594 68.203125 36.660156 67.804688 36.632812 C 67.355469 36.632812 67.003906 36.707031 66.75 36.859375 Z M 68.40625 38.398438 L 68.40625 37.976562 C 68.304688 37.78125 68.066406 37.683594 67.691406 37.683594 C 67.238281 37.734375 67 37.910156 66.976562 38.210938 C 67 38.507812 67.238281 38.671875 67.691406 38.695312 C 68.066406 38.695312 68.304688 38.597656 68.40625 38.398438 Z M 68.40625 38.398438 "/>
<path style=" stroke:none;fill-rule:nonzero;fill:rgb(100%,84.313725%,84.313725%);fill-opacity:1;" d="M 15.417969 42.917969 C 16.867188 42.917969 18.226562 42.359375 19.25 41.335938 C 20.273438 40.3125 20.832031 38.953125 20.832031 37.5 C 20.832031 36.046875 20.273438 34.6875 19.25 33.664062 C 18.226562 32.640625 16.867188 32.082031 15.417969 32.082031 C 13.964844 32.082031 12.605469 32.640625 11.582031 33.664062 C 10.558594 34.6875 10 36.046875 10 37.5 C 10 38.953125 10.558594 40.3125 11.582031 41.335938 C 12.605469 42.359375 13.964844 42.917969 15.417969 42.917969 Z M 15.726562 41.996094 C 15.625 42.007812 15.519531 42.007812 15.417969 42.007812 C 15.273438 42.007812 15.132812 41.996094 14.988281 41.984375 C 14.523438 41.257812 14.171875 40.480469 13.964844 39.664062 L 16.257812 39.664062 C 16.335938 39.859375 16.480469 40.039062 16.648438 40.15625 C 16.425781 40.804688 16.117188 41.414062 15.726562 41.996094 Z M 16.957031 41.738281 C 17.203125 41.285156 17.398438 40.828125 17.554688 40.351562 C 17.929688 40.273438 18.226562 40.015625 18.371094 39.664062 L 19.367188 39.664062 C 18.851562 40.609375 17.980469 41.347656 16.957031 41.738281 Z M 19.914062 37.5 C 19.914062 37.925781 19.847656 38.34375 19.742188 38.742188 L 18.34375 38.742188 C 18.265625 38.574219 18.136719 38.421875 17.980469 38.304688 C 18.007812 38.019531 18.019531 37.734375 18.019531 37.449219 C 18.019531 37.046875 17.996094 36.644531 17.941406 36.257812 L 19.730469 36.257812 C 19.859375 36.644531 19.914062 37.074219 19.914062 37.5 Z M 19.367188 35.335938 L 17.789062 35.335938 C 17.617188 34.625 17.371094 33.949219 17.035156 33.300781 C 18.019531 33.675781 18.851562 34.417969 19.367188 35.335938 Z M 17.113281 37.449219 C 17.113281 37.667969 17.101562 37.890625 17.085938 38.109375 C 16.726562 38.1875 16.425781 38.421875 16.285156 38.742188 L 13.785156 38.742188 C 13.730469 38.355469 13.691406 37.953125 13.691406 37.566406 C 13.691406 37.320312 13.707031 37.074219 13.730469 36.828125 C 14.070312 36.761719 14.339844 36.542969 14.507812 36.257812 L 17.035156 36.257812 C 17.085938 36.644531 17.113281 37.046875 17.113281 37.449219 Z M 15.078125 33.015625 C 15.195312 33.003906 15.3125 33.003906 15.417969 33.003906 C 15.546875 33.003906 15.675781 33.003906 15.804688 33.015625 C 16.269531 33.742188 16.621094 34.519531 16.828125 35.335938 L 14.574219 35.335938 C 14.496094 35.117188 14.355469 34.921875 14.171875 34.777344 C 14.40625 34.15625 14.703125 33.574219 15.078125 33.015625 Z M 13.847656 33.277344 C 13.628906 33.691406 13.433594 34.132812 13.277344 34.570312 C 12.875 34.648438 12.550781 34.949219 12.421875 35.324219 L 11.476562 35.324219 C 11.984375 34.402344 12.824219 33.664062 13.847656 33.277344 Z M 10.921875 37.5 C 10.921875 37.074219 10.984375 36.644531 11.101562 36.257812 L 12.515625 36.257812 C 12.589844 36.398438 12.707031 36.527344 12.835938 36.632812 C 12.8125 36.941406 12.785156 37.253906 12.785156 37.566406 C 12.785156 37.964844 12.8125 38.355469 12.863281 38.742188 L 11.101562 38.742188 C 10.972656 38.34375 10.921875 37.925781 10.921875 37.5 Z M 13.019531 39.652344 C 13.1875 40.351562 13.433594 41.039062 13.769531 41.683594 C 12.785156 41.296875 11.96875 40.570312 11.464844 39.652344 Z M 13.019531 39.652344 "/>
</g>
</svg>
