<svg id="Layer_1" data-name="Layer 1" xmlns="http://www.w3.org/2000/svg" viewBox="0 0 1366 768"><defs><style>.cls-1{fill:#fd2d01;}.cls-2{fill:#ffd7d7;}</style></defs><g id="b5a93e15-ef7c-9d7a-680b-cdb17474f15f"><path class="cls-1" d="M629.78,392.37h0a10.87,10.87,0,0,1-8-3.24h0a10.9,10.9,0,0,1-3.23-8.07h0a10.9,10.9,0,0,1,3.23-8h0a10.9,10.9,0,0,1,8-3.23h0a12.11,12.11,0,0,1,8.27,3h0l-3,3.28h0a8.34,8.34,0,0,0-5.28-1.8h0a6.7,6.7,0,0,0-4.9,1.95h0a6.54,6.54,0,0,0-1.84,4.8h0a6.68,6.68,0,0,0,1.87,5h0a6.65,6.65,0,0,0,4.9,1.85h0a6.23,6.23,0,0,0,3.74-1h0v-3.87h-3v-4.22H638v10.54h0a12.11,12.11,0,0,1-8.27,3Zm16.35-15.05V379h0a5.3,5.3,0,0,1,3.93-1.65h0a9.2,9.2,0,0,1,1.39.11h0l-.66,4.16h0a3.11,3.11,0,0,0-2.09-.7h0c-1,.07-1.89.81-2.57,2.22h0v9.24h-4.21V377.78ZM661,392.52h0a7.42,7.42,0,0,1-5.48-2.2h0a7.45,7.45,0,0,1-2.18-5.45h0a7.48,7.48,0,0,1,2.18-5.48h0a7.42,7.42,0,0,1,5.48-2.2h0a7.44,7.44,0,0,1,5.48,2.2h0a7.46,7.46,0,0,1,2.2,5.48h0a7.38,7.38,0,0,1-2.2,5.45h0A7.44,7.44,0,0,1,661,392.52Zm0-3.63h0a3.62,3.62,0,0,0,2.77-1.16h0a4,4,0,0,0,1.08-2.86h0a4,4,0,0,0-1.08-2.86h0a3.59,3.59,0,0,0-2.79-1.17h0a3.6,3.6,0,0,0-2.77,1.17h0a4,4,0,0,0-1.06,2.86h0a4.07,4.07,0,0,0,1.06,2.86h0a3.64,3.64,0,0,0,2.79,1.16Zm19.6-1.85h0v-9.72h4.2v15.05h-4.2V391h0a5.22,5.22,0,0,1-3.61,1.37h0a5.41,5.41,0,0,1-4.35-1.74h0a5.91,5.91,0,0,1-1.52-4h0V377.3h4.22v8.27h0a3.39,3.39,0,0,0,.75,2.33h0a3,3,0,0,0,2.27.88h0a2.85,2.85,0,0,0,2.25-1.74Zm12,11.66h-4.2V377.8l4.2-.46v1.21h0a5.74,5.74,0,0,1,3.32-1.21h0a6.93,6.93,0,0,1,5.48,2.27h0a7.52,7.52,0,0,1,2,5.25h0a7.52,7.52,0,0,1-2,5.26h0a7,7,0,0,1-5.48,2.27h0a5.05,5.05,0,0,1-3.32-1.23h0Zm0-15.22h0v2.44h0c.21,1.69,1.26,2.68,3.17,3h0a4,4,0,0,0,4.07-3.74h0c-.1-2.81-1.45-4.27-4.07-4.38h0c-1.91.28-3,1.18-3.17,2.68Zm20.64,9h0a7.36,7.36,0,0,1-5.46-2.2h0a7.41,7.41,0,0,1-2.2-5.45h0a7.4,7.4,0,0,1,2.2-5.48h0a7.36,7.36,0,0,1,5.46-2.2h0a7.44,7.44,0,0,1,5.48,2.2h0a7.46,7.46,0,0,1,2.2,5.48h0a7.38,7.38,0,0,1-2.2,5.45h0A7.44,7.44,0,0,1,713.25,392.48Zm0-3.63h0a3.59,3.59,0,0,0,2.77-1.16h0a4,4,0,0,0,1.08-2.86h0A4,4,0,0,0,716,382h0a3.59,3.59,0,0,0-2.79-1.17h0a3.62,3.62,0,0,0-2.78,1.17h0a4.08,4.08,0,0,0-1.05,2.86h0a4.12,4.12,0,0,0,1.05,2.86h0a3.65,3.65,0,0,0,2.8,1.2Zm14.69-6.14h0v9.62h-4.22V377.78l4.22-.46v1.34h0a5.07,5.07,0,0,1,3.61-1.32h0a5.53,5.53,0,0,1,4.36,1.72h0a6.54,6.54,0,0,1,5-1.72h0a5.51,5.51,0,0,1,4.38,1.72h0a6,6,0,0,1,1.49,4h0v9.31h-4.2V384.1h0a3.64,3.64,0,0,0-.68-2.34h0a2.83,2.83,0,0,0-2.2-.85h0a2.78,2.78,0,0,0-2.16,1.65h0a5,5,0,0,0-.09.94h0v8.87h-4.2V384.1h0a3.64,3.64,0,0,0-.68-2.34h0a2.83,2.83,0,0,0-2.2-.85h0a3,3,0,0,0-2.38,1.84Zm24.45-1-1.65-2.55h0a12.1,12.1,0,0,1,6.62-1.81h0a6,6,0,0,1,4.27,1.5h0a6,6,0,0,1,1.58,4.51h0v9H759v-1.19h0a6.31,6.31,0,0,1-3.32,1.19h0a6.86,6.86,0,0,1-4.51-1.28h0a4.38,4.38,0,0,1-1.5-3.52h0a5.65,5.65,0,0,1,1.43-3.76h0c.94-1.1,2.46-1.65,4.58-1.65h0a7.69,7.69,0,0,1,3.32.9h0v-.46h0c0-1.1-.84-1.7-2.42-1.8h0a8.18,8.18,0,0,0-4.2.9Zm6.62,6.2h0v-1.7h0c-.4-.77-1.35-1.16-2.86-1.16h0c-1.81.2-2.76.91-2.86,2.11h0c.1,1.19,1.05,1.83,2.86,1.94h0C757.66,389.05,758.61,388.65,759,387.86Zm12.19-5h0v9.55H767V377.78l4.23-.46v1.36h0a5.31,5.31,0,0,1,3.6-1.34h0a5.46,5.46,0,0,1,4.36,1.72h0a5.91,5.91,0,0,1,1.5,4h0v9.31h-4.21V384.1h0a3.42,3.42,0,0,0-.74-2.34h0a3.12,3.12,0,0,0-2.29-.85h0c-.91,0-1.65.69-2.26,1.91Zm17.2,9.55h-4.2V377.32h4.2ZM784,373.73h0a2,2,0,0,0,.6,1.5h0a2.29,2.29,0,0,0,1.67.59h0a2.27,2.27,0,0,0,1.73-.56h0a2,2,0,0,0,.59-1.5h0a2.05,2.05,0,0,0-.59-1.5h0a2.24,2.24,0,0,0-1.69-.62h0a2.16,2.16,0,0,0-1.63.62h0A2.08,2.08,0,0,0,784,373.73Zm10,8-1.65-2.55h0a12.1,12.1,0,0,1,6.62-1.81h0a6,6,0,0,1,4.29,1.5h0a6,6,0,0,1,1.56,4.51h0v9h-4.2v-1.19h0a6.24,6.24,0,0,1-3.3,1.19h0a6.8,6.8,0,0,1-4.51-1.28h0a4.37,4.37,0,0,1-1.52-3.52h0a5.65,5.65,0,0,1,1.43-3.76h0c.94-1.1,2.48-1.65,4.6-1.65h0a7.75,7.75,0,0,1,3.3.9h0v-.46h0q0-1.65-2.4-1.8h0a8.24,8.24,0,0,0-4.22.9Zm6.62,6.16h0v-1.7h0c-.39-.77-1.35-1.16-2.86-1.16h0c-1.8.2-2.76.91-2.86,2.11h0c.1,1.19,1.06,1.83,2.86,1.94h0c1.51,0,2.47-.43,2.86-1.22Z"/></g><g id="_9269873b-566f-aa23-fe77-697bbc54db67" data-name=" 9269873b-566f-aa23-fe77-697bbc54db67"><path class="cls-2" d="M582.9,405.84a21.58,21.58,0,1,0-15.34-6.32A21.57,21.57,0,0,0,582.9,405.84Zm1.25-3.66a8.65,8.65,0,0,1-1.25.06c-.57,0-1.14-.06-1.71-.11a31.79,31.79,0,0,1-4.09-9.27h9.14a4.47,4.47,0,0,0,1.56,2A31.3,31.3,0,0,1,584.15,402.18Zm4.92-1a32,32,0,0,0,2.39-5.55,4.48,4.48,0,0,0,3.26-2.74h4A18.43,18.43,0,0,1,589.07,401.18Zm11.82-17a20.07,20.07,0,0,1-.67,5h-5.6a4.78,4.78,0,0,0-1.45-1.77q.15-1.71.15-3.42a36.38,36.38,0,0,0-.31-4.77h7.15A15.77,15.77,0,0,1,600.89,384.18Zm-2.18-8.66h-6.32a34.41,34.41,0,0,0-3-8.13A18.3,18.3,0,0,1,598.71,375.52Zm-9,8.45a23.57,23.57,0,0,1-.1,2.65,4.5,4.5,0,0,0-3.23,2.56h-10a37.21,37.21,0,0,1-.36-4.72,27.41,27.41,0,0,1,.16-3,4.67,4.67,0,0,0,3.06-2.28h10.1a35,35,0,0,1,.35,4.79Zm-8.13-17.72c.45,0,.9,0,1.34,0h1.56a31.27,31.27,0,0,1,4.09,9.27h-9A5.09,5.09,0,0,0,578,373.3a33.48,33.48,0,0,1,3.6-7.05Zm-4.93,1a38,38,0,0,0-2.28,5.19,4.61,4.61,0,0,0-3.42,3h-3.8a18.27,18.27,0,0,1,9.48-8.16Zm-11.73,16.93a17.69,17.69,0,0,1,.73-5h5.64a5.4,5.4,0,0,0,1.3,1.51c-.1,1.24-.21,2.49-.21,3.73a37.16,37.16,0,0,0,.31,4.72h-7A16.32,16.32,0,0,1,564.92,384.18Zm8.4,8.6a35.21,35.21,0,0,0,3,8.14,18.07,18.07,0,0,1-9.22-8.14Z"/></g></svg>