<?xml version="1.0" encoding="utf-8"?>
<!-- Generator: Adobe Illustrator 16.0.0, SVG Export Plug-In . SVG Version: 6.00 Build 0)  -->
<!DOCTYPE svg PUBLIC "-//W3C//DTD SVG 1.0//EN" "http://www.w3.org/TR/2001/REC-SVG-20010904/DTD/svg10.dtd">
<svg version="1.0" id="Layer_1" xmlns="http://www.w3.org/2000/svg" xmlns:xlink="http://www.w3.org/1999/xlink" x="0px" y="0px"
	 width="100px" height="100px" viewBox="0 0 100 100" enable-background="new 0 0 100 100" xml:space="preserve">
<path d="M20,76.67v6.663C20,86.999,23.001,90,26.667,90h46.666C76.999,90,80,86.999,80,83.333V76.67H20z"/>
<path d="M73.333,36.667H36.667V30c0-7.363,5.97-13.333,13.333-13.333S63.333,22.637,63.333,30H70c0-11.045-8.955-20-20-20
	s-20,8.955-20,20v6.667h-3.333c-3.666,0-6.667,3.001-6.667,6.667V70h60V43.333C80,39.668,76.999,36.667,73.333,36.667z M40,63.334
	h-6.667V50H40V63.334z M53.333,63.334h-6.666V50h6.666V63.334z M66.667,63.334H60V50h6.667V63.334z"/>
</svg>
